# MagicaVoxel @ Ephtracy

# group
o 

# material
mtllib Orc_Axemann_Level_One-0.mtl
usemtl palette

# normals
vn -1 0 0
vn 1 0 0
vn 0 0 1
vn 0 0 -1
vn 0 -1 0
vn 0 1 0

# texcoords
vt 0.912109 0.5
vt 0.939453 0.5
vt 0.955078 0.5

# verts
v -2.8 2.8 0
v -2.8 2.8 -0.1
v -2.8 3.8 0
v -2.8 3.8 -0.1
v -2.7 2.7 0
v -2.7 2.7 -0.1
v -2.7 2.8 0
v -2.7 2.8 -0.1
v -2.7 3.8 0
v -2.7 3.8 -0.1
v -2.7 3.9 0
v -2.7 3.9 -0.1
v -2.1 1.5 0
v -2.1 1.5 -0.1
v -2.1 1.6 0
v -2.1 1.6 -0.1
v -2 1.4 0.1
v -2 1.4 -0.2
v -2 1.5 0
v -2 1.5 -0.1
v -2 1.6 0.1
v -2 1.6 0
v -2 1.6 -0.1
v -2 1.6 -0.2
v -2 3.1 0.1
v -2 3.1 0
v -2 3.1 -0.1
v -2 3.1 -0.2
v -2 3.2 0
v -2 3.2 -0.1
v -2 3.4 0
v -2 3.4 -0.1
v -2 3.5 0.1
v -2 3.5 -0.2
v -1.9 1.5 0.2
v -1.9 1.5 0.1
v -1.9 1.5 -0.2
v -1.9 1.5 -0.3
v -1.9 1.6 0.2
v -1.9 1.6 0.1
v -1.9 1.6 0
v -1.9 1.6 -0.1
v -1.9 1.6 -0.2
v -1.9 1.6 -0.3
v -1.9 3.1 0.1
v -1.9 3.1 0
v -1.9 3.1 -0.1
v -1.9 3.1 -0.2
v -1.9 3.3 0.2
v -1.9 3.3 0.1
v -1.9 3.3 -0.2
v -1.9 3.3 -0.3
v -1.9 3.4 0.2
v -1.9 3.4 0.1
v -1.9 3.4 -0.2
v -1.9 3.4 -0.3
v -1.9 3.5 0
v -1.9 3.5 -0.1
v -1.9 3.6 0
v -1.9 3.6 -0.1
v -2.6 2.7 0
v -2.6 2.7 -0.1
v -2.6 2.8 0
v -2.6 2.8 -0.1
v -2.6 3.8 0
v -2.6 3.8 -0.1
v -2.6 3.9 0
v -2.6 3.9 -0.1
v -2.5 2.8 0
v -2.5 2.8 -0.1
v -2.5 2.9 0
v -2.5 2.9 -0.1
v -2.5 3.7 0
v -2.5 3.7 -0.1
v -2.5 3.8 0
v -2.5 3.8 -0.1
v -2.4 2.9 0
v -2.4 2.9 -0.1
v -2.4 3 0
v -2.4 3 -0.1
v -2.4 3.6 0
v -2.4 3.6 -0.1
v -2.4 3.7 0
v -2.4 3.7 -0.1
v -2.1 3 0
v -2.1 3 -0.1
v -2.1 3.2 0
v -2.1 3.2 -0.1
v -2.1 3.4 0
v -2.1 3.4 -0.1
v -2.1 3.6 0
v -2.1 3.6 -0.1
v -1.8 1.5 0.2
v -1.8 1.5 0.1
v -1.8 1.5 -0.2
v -1.8 1.5 -0.3
v -1.8 1.6 0.2
v -1.8 1.6 0.1
v -1.8 1.6 0
v -1.8 1.6 -0.1
v -1.8 1.6 -0.2
v -1.8 1.6 -0.3
v -1.8 3.1 0.1
v -1.8 3.1 0
v -1.8 3.1 -0.1
v -1.8 3.1 -0.2
v -1.8 3.3 0.2
v -1.8 3.3 0.1
v -1.8 3.3 -0.2
v -1.8 3.3 -0.3
v -1.8 3.4 0.2
v -1.8 3.4 0.1
v -1.8 3.4 -0.2
v -1.8 3.4 -0.3
v -1.8 3.5 0
v -1.8 3.5 -0.1
v -1.8 3.6 0
v -1.8 3.6 -0.1
v -1.7 1.4 0.1
v -1.7 1.4 -0.2
v -1.7 1.5 0
v -1.7 1.5 -0.1
v -1.7 1.6 0.1
v -1.7 1.6 0
v -1.7 1.6 -0.1
v -1.7 1.6 -0.2
v -1.7 3.1 0.1
v -1.7 3.1 0
v -1.7 3.1 -0.1
v -1.7 3.1 -0.2
v -1.7 3.2 0
v -1.7 3.2 -0.1
v -1.7 3.4 0
v -1.7 3.4 -0.1
v -1.7 3.5 0.1
v -1.7 3.5 -0.2
v -1.6 1.5 0
v -1.6 1.5 -0.1
v -1.6 1.6 0
v -1.6 1.6 -0.1
v -1.6 3.2 0
v -1.6 3.2 -0.1
v -1.6 3.3 0
v -1.6 3.3 -0.1
v -1.3 3.3 0
v -1.3 3.3 -0.1
v -1.3 3.4 0
v -1.3 3.4 -0.1
v -1.9 1.5 0.2
v -1.9 1.6 0.2
v -1.9 3.3 0.2
v -1.9 3.4 0.2
v -1.8 1.5 0.2
v -1.8 1.6 0.2
v -1.8 3.3 0.2
v -1.8 3.4 0.2
v -2 1.4 0.1
v -2 1.6 0.1
v -2 3.1 0.1
v -2 3.5 0.1
v -1.9 1.5 0.1
v -1.9 1.6 0.1
v -1.9 3.1 0.1
v -1.9 3.3 0.1
v -1.9 3.4 0.1
v -1.8 1.5 0.1
v -1.8 1.6 0.1
v -1.8 3.1 0.1
v -1.8 3.3 0.1
v -1.8 3.4 0.1
v -1.7 1.4 0.1
v -1.7 1.6 0.1
v -1.7 3.1 0.1
v -1.7 3.5 0.1
v -2.8 2.8 0
v -2.8 3.8 0
v -2.7 2.7 0
v -2.7 2.8 0
v -2.7 3.8 0
v -2.7 3.9 0
v -2.6 2.7 0
v -2.6 2.8 0
v -2.6 3 0
v -2.6 3.6 0
v -2.6 3.8 0
v -2.6 3.9 0
v -2.5 2.8 0
v -2.5 2.9 0
v -2.5 3 0
v -2.5 3.1 0
v -2.5 3.5 0
v -2.5 3.6 0
v -2.5 3.7 0
v -2.5 3.8 0
v -2.4 2.9 0
v -2.4 3 0
v -2.4 3.1 0
v -2.4 3.5 0
v -2.4 3.6 0
v -2.4 3.7 0
v -2.1 1.5 0
v -2.1 1.6 0
v -2.1 3 0
v -2.1 3.2 0
v -2.1 3.4 0
v -2.1 3.6 0
v -2 1.5 0
v -2 1.6 0
v -2 3.1 0
v -2 3.2 0
v -2 3.4 0
v -1.9 1.6 0
v -1.9 3.1 0
v -1.9 3.5 0
v -1.9 3.6 0
v -1.8 1.6 0
v -1.8 3.1 0
v -1.8 3.5 0
v -1.8 3.6 0
v -1.7 1.5 0
v -1.7 1.6 0
v -1.7 3.1 0
v -1.7 3.2 0
v -1.7 3.4 0
v -1.6 1.5 0
v -1.6 1.6 0
v -1.6 3.2 0
v -1.6 3.3 0
v -1.3 3.3 0
v -1.3 3.4 0
v -2.8 2.8 -0.1
v -2.8 3.8 -0.1
v -2.7 2.7 -0.1
v -2.7 2.8 -0.1
v -2.7 3.8 -0.1
v -2.7 3.9 -0.1
v -2.6 2.7 -0.1
v -2.6 2.8 -0.1
v -2.6 3 -0.1
v -2.6 3.6 -0.1
v -2.6 3.8 -0.1
v -2.6 3.9 -0.1
v -2.5 2.8 -0.1
v -2.5 2.9 -0.1
v -2.5 3 -0.1
v -2.5 3.1 -0.1
v -2.5 3.5 -0.1
v -2.5 3.6 -0.1
v -2.5 3.7 -0.1
v -2.5 3.8 -0.1
v -2.4 2.9 -0.1
v -2.4 3 -0.1
v -2.4 3.1 -0.1
v -2.4 3.5 -0.1
v -2.4 3.6 -0.1
v -2.4 3.7 -0.1
v -2.1 1.5 -0.1
v -2.1 1.6 -0.1
v -2.1 3 -0.1
v -2.1 3.2 -0.1
v -2.1 3.4 -0.1
v -2.1 3.6 -0.1
v -2 1.5 -0.1
v -2 1.6 -0.1
v -2 3.1 -0.1
v -2 3.2 -0.1
v -2 3.4 -0.1
v -1.9 1.6 -0.1
v -1.9 3.1 -0.1
v -1.9 3.5 -0.1
v -1.9 3.6 -0.1
v -1.8 1.6 -0.1
v -1.8 3.1 -0.1
v -1.8 3.5 -0.1
v -1.8 3.6 -0.1
v -1.7 1.5 -0.1
v -1.7 1.6 -0.1
v -1.7 3.1 -0.1
v -1.7 3.2 -0.1
v -1.7 3.4 -0.1
v -1.6 1.5 -0.1
v -1.6 1.6 -0.1
v -1.6 3.2 -0.1
v -1.6 3.3 -0.1
v -1.3 3.3 -0.1
v -1.3 3.4 -0.1
v -2 1.4 -0.2
v -2 1.6 -0.2
v -2 3.1 -0.2
v -2 3.5 -0.2
v -1.9 1.5 -0.2
v -1.9 1.6 -0.2
v -1.9 3.1 -0.2
v -1.9 3.3 -0.2
v -1.9 3.4 -0.2
v -1.8 1.5 -0.2
v -1.8 1.6 -0.2
v -1.8 3.1 -0.2
v -1.8 3.3 -0.2
v -1.8 3.4 -0.2
v -1.7 1.4 -0.2
v -1.7 1.6 -0.2
v -1.7 3.1 -0.2
v -1.7 3.5 -0.2
v -1.9 1.5 -0.3
v -1.9 1.6 -0.3
v -1.9 3.3 -0.3
v -1.9 3.4 -0.3
v -1.8 1.5 -0.3
v -1.8 1.6 -0.3
v -1.8 3.3 -0.3
v -1.8 3.4 -0.3
v -2 1.4 0.1
v -1.7 1.4 0.1
v -2 1.4 -0.2
v -1.7 1.4 -0.2
v -1.9 1.5 0.2
v -1.8 1.5 0.2
v -1.9 1.5 0.1
v -1.8 1.5 0.1
v -2.1 1.5 0
v -2 1.5 0
v -1.7 1.5 0
v -1.6 1.5 0
v -2.1 1.5 -0.1
v -2 1.5 -0.1
v -1.7 1.5 -0.1
v -1.6 1.5 -0.1
v -1.9 1.5 -0.2
v -1.8 1.5 -0.2
v -1.9 1.5 -0.3
v -1.8 1.5 -0.3
v -2.7 2.7 0
v -2.6 2.7 0
v -2.7 2.7 -0.1
v -2.6 2.7 -0.1
v -2.8 2.8 0
v -2.7 2.8 0
v -2.6 2.8 0
v -2.5 2.8 0
v -2.8 2.8 -0.1
v -2.7 2.8 -0.1
v -2.6 2.8 -0.1
v -2.5 2.8 -0.1
v -2.5 2.9 0
v -2.4 2.9 0
v -2.5 2.9 -0.1
v -2.4 2.9 -0.1
v -2.4 3 0
v -2.1 3 0
v -2.4 3 -0.1
v -2.1 3 -0.1
v -2 3.1 0.1
v -1.9 3.1 0.1
v -1.8 3.1 0.1
v -1.7 3.1 0.1
v -2 3.1 0
v -1.9 3.1 0
v -1.8 3.1 0
v -1.7 3.1 0
v -2 3.1 -0.1
v -1.9 3.1 -0.1
v -1.8 3.1 -0.1
v -1.7 3.1 -0.1
v -2 3.1 -0.2
v -1.9 3.1 -0.2
v -1.8 3.1 -0.2
v -1.7 3.1 -0.2
v -2.1 3.2 0
v -2 3.2 0
v -1.7 3.2 0
v -1.6 3.2 0
v -2.1 3.2 -0.1
v -2 3.2 -0.1
v -1.7 3.2 -0.1
v -1.6 3.2 -0.1
v -1.9 3.3 0.2
v -1.8 3.3 0.2
v -1.9 3.3 0.1
v -1.8 3.3 0.1
v -1.6 3.3 0
v -1.3 3.3 0
v -1.6 3.3 -0.1
v -1.3 3.3 -0.1
v -1.9 3.3 -0.2
v -1.8 3.3 -0.2
v -1.9 3.3 -0.3
v -1.8 3.3 -0.3
v -1.9 1.6 0.2
v -1.8 1.6 0.2
v -2 1.6 0.1
v -1.9 1.6 0.1
v -1.8 1.6 0.1
v -1.7 1.6 0.1
v -2.1 1.6 0
v -2 1.6 0
v -1.9 1.6 0
v -1.8 1.6 0
v -1.7 1.6 0
v -1.6 1.6 0
v -2.1 1.6 -0.1
v -2 1.6 -0.1
v -1.9 1.6 -0.1
v -1.8 1.6 -0.1
v -1.7 1.6 -0.1
v -1.6 1.6 -0.1
v -2 1.6 -0.2
v -1.9 1.6 -0.2
v -1.8 1.6 -0.2
v -1.7 1.6 -0.2
v -1.9 1.6 -0.3
v -1.8 1.6 -0.3
v -1.9 3.4 0.2
v -1.8 3.4 0.2
v -1.9 3.4 0.1
v -1.8 3.4 0.1
v -2.1 3.4 0
v -2 3.4 0
v -1.7 3.4 0
v -1.3 3.4 0
v -2.1 3.4 -0.1
v -2 3.4 -0.1
v -1.7 3.4 -0.1
v -1.3 3.4 -0.1
v -1.9 3.4 -0.2
v -1.8 3.4 -0.2
v -1.9 3.4 -0.3
v -1.8 3.4 -0.3
v -2 3.5 0.1
v -1.7 3.5 0.1
v -1.9 3.5 0
v -1.8 3.5 0
v -1.9 3.5 -0.1
v -1.8 3.5 -0.1
v -2 3.5 -0.2
v -1.7 3.5 -0.2
v -2.4 3.6 0
v -2.1 3.6 0
v -1.9 3.6 0
v -1.8 3.6 0
v -2.4 3.6 -0.1
v -2.1 3.6 -0.1
v -1.9 3.6 -0.1
v -1.8 3.6 -0.1
v -2.5 3.7 0
v -2.4 3.7 0
v -2.5 3.7 -0.1
v -2.4 3.7 -0.1
v -2.8 3.8 0
v -2.7 3.8 0
v -2.6 3.8 0
v -2.5 3.8 0
v -2.8 3.8 -0.1
v -2.7 3.8 -0.1
v -2.6 3.8 -0.1
v -2.5 3.8 -0.1
v -2.7 3.9 0
v -2.6 3.9 0
v -2.7 3.9 -0.1
v -2.6 3.9 -0.1

# faces
f 3/1/1 2/1/1 1/1/1
f 4/1/1 2/1/1 3/1/1
f 7/1/1 6/1/1 5/1/1
f 8/1/1 6/1/1 7/1/1
f 11/1/1 10/1/1 9/1/1
f 12/1/1 10/1/1 11/1/1
f 15/1/1 14/1/1 13/1/1
f 16/1/1 14/1/1 15/1/1
f 19/2/1 18/2/1 17/2/1
f 20/2/1 18/2/1 19/2/1
f 21/2/1 19/2/1 17/2/1
f 22/2/1 19/2/1 21/2/1
f 23/2/1 18/2/1 20/2/1
f 24/2/1 18/2/1 23/2/1
f 26/3/1 23/3/1 22/3/1
f 27/3/1 23/3/1 26/3/1
f 29/2/1 26/2/1 25/2/1
f 29/2/1 28/2/1 27/2/1
f 29/2/1 27/2/1 26/2/1
f 30/2/1 28/2/1 29/2/1
f 31/2/1 29/2/1 25/2/1
f 32/2/1 28/2/1 30/2/1
f 33/2/1 31/2/1 25/2/1
f 33/2/1 32/2/1 31/2/1
f 34/2/1 28/2/1 32/2/1
f 34/2/1 32/2/1 33/2/1
f 39/1/1 36/1/1 35/1/1
f 40/1/1 36/1/1 39/1/1
f 43/1/1 38/1/1 37/1/1
f 44/1/1 38/1/1 43/1/1
f 45/3/1 41/3/1 40/3/1
f 46/3/1 41/3/1 45/3/1
f 47/3/1 43/3/1 42/3/1
f 48/3/1 43/3/1 47/3/1
f 53/1/1 50/1/1 49/1/1
f 54/1/1 50/1/1 53/1/1
f 55/1/1 52/1/1 51/1/1
f 56/1/1 52/1/1 55/1/1
f 59/1/1 58/1/1 57/1/1
f 60/1/1 58/1/1 59/1/1
f 61/1/2 62/1/2 63/1/2
f 63/1/2 62/1/2 64/1/2
f 65/1/2 66/1/2 67/1/2
f 67/1/2 66/1/2 68/1/2
f 69/2/2 70/2/2 71/2/2
f 71/2/2 70/2/2 72/2/2
f 73/2/2 74/2/2 75/2/2
f 75/2/2 74/2/2 76/2/2
f 77/2/2 78/2/2 79/2/2
f 79/2/2 78/2/2 80/2/2
f 81/2/2 82/2/2 83/2/2
f 83/2/2 82/2/2 84/2/2
f 85/2/2 86/2/2 87/2/2
f 87/2/2 86/2/2 88/2/2
f 89/2/2 90/2/2 91/2/2
f 91/2/2 90/2/2 92/2/2
f 93/1/2 94/1/2 97/1/2
f 97/1/2 94/1/2 98/1/2
f 95/1/2 96/1/2 101/1/2
f 101/1/2 96/1/2 102/1/2
f 98/3/2 99/3/2 103/3/2
f 103/3/2 99/3/2 104/3/2
f 100/3/2 101/3/2 105/3/2
f 105/3/2 101/3/2 106/3/2
f 107/1/2 108/1/2 111/1/2
f 111/1/2 108/1/2 112/1/2
f 109/1/2 110/1/2 113/1/2
f 113/1/2 110/1/2 114/1/2
f 115/1/2 116/1/2 117/1/2
f 117/1/2 116/1/2 118/1/2
f 119/2/2 120/2/2 121/2/2
f 121/2/2 120/2/2 122/2/2
f 119/2/2 121/2/2 123/2/2
f 123/2/2 121/2/2 124/2/2
f 122/2/2 120/2/2 125/2/2
f 125/2/2 120/2/2 126/2/2
f 124/3/2 125/3/2 128/3/2
f 128/3/2 125/3/2 129/3/2
f 127/2/2 128/2/2 131/2/2
f 129/2/2 130/2/2 131/2/2
f 128/2/2 129/2/2 131/2/2
f 131/2/2 130/2/2 132/2/2
f 127/2/2 131/2/2 133/2/2
f 132/2/2 130/2/2 134/2/2
f 127/2/2 133/2/2 135/2/2
f 133/2/2 134/2/2 135/2/2
f 134/2/2 130/2/2 136/2/2
f 135/2/2 134/2/2 136/2/2
f 137/1/2 138/1/2 139/1/2
f 139/1/2 138/1/2 140/1/2
f 141/1/2 142/1/2 143/1/2
f 143/1/2 142/1/2 144/1/2
f 145/1/2 146/1/2 147/1/2
f 147/1/2 146/1/2 148/1/2
f 153/1/3 150/1/3 149/1/3
f 154/1/3 150/1/3 153/1/3
f 155/1/3 152/1/3 151/1/3
f 156/1/3 152/1/3 155/1/3
f 161/2/3 158/2/3 157/2/3
f 162/2/3 158/2/3 161/2/3
f 163/2/3 160/2/3 159/2/3
f 164/2/3 160/2/3 163/2/3
f 165/2/3 160/2/3 164/2/3
f 166/2/3 161/2/3 157/2/3
f 167/3/3 163/3/3 162/3/3
f 168/2/3 164/2/3 163/2/3
f 168/3/3 163/3/3 167/3/3
f 169/2/3 164/2/3 168/2/3
f 170/2/3 160/2/3 165/2/3
f 171/2/3 167/2/3 166/2/3
f 171/2/3 166/2/3 157/2/3
f 172/2/3 167/2/3 171/2/3
f 173/2/3 169/2/3 168/2/3
f 173/2/3 170/2/3 169/2/3
f 174/2/3 160/2/3 170/2/3
f 174/2/3 170/2/3 173/2/3
f 178/1/3 176/1/3 175/1/3
f 179/1/3 176/1/3 178/1/3
f 181/1/3 178/1/3 177/1/3
f 181/1/3 180/1/3 179/1/3
f 181/1/3 179/1/3 178/1/3
f 182/1/3 180/1/3 181/1/3
f 183/1/3 180/1/3 182/1/3
f 184/1/3 180/1/3 183/1/3
f 185/1/3 180/1/3 184/1/3
f 186/1/3 180/1/3 185/1/3
f 187/2/3 183/2/3 182/2/3
f 188/2/3 183/2/3 187/2/3
f 189/1/3 184/1/3 183/1/3
f 189/2/3 183/2/3 188/2/3
f 190/1/3 184/1/3 189/1/3
f 191/1/3 184/1/3 190/1/3
f 192/2/3 185/2/3 184/2/3
f 192/1/3 184/1/3 191/1/3
f 193/2/3 185/2/3 192/2/3
f 194/2/3 185/2/3 193/2/3
f 195/2/3 189/2/3 188/2/3
f 195/2/3 190/2/3 189/2/3
f 196/2/3 190/2/3 195/2/3
f 197/1/3 191/1/3 190/1/3
f 197/2/3 190/2/3 196/2/3
f 198/2/3 193/2/3 192/2/3
f 198/1/3 191/1/3 197/1/3
f 198/2/3 192/2/3 191/2/3
f 199/2/3 193/2/3 198/2/3
f 200/2/3 193/2/3 199/2/3
f 203/2/3 197/2/3 196/2/3
f 203/2/3 198/2/3 197/2/3
f 203/2/3 199/2/3 198/2/3
f 204/2/3 199/2/3 203/2/3
f 205/2/3 199/2/3 204/2/3
f 206/2/3 199/2/3 205/2/3
f 207/1/3 202/1/3 201/1/3
f 208/1/3 202/1/3 207/1/3
f 210/2/3 205/2/3 204/2/3
f 211/2/3 205/2/3 210/2/3
f 212/3/3 209/3/3 208/3/3
f 213/3/3 209/3/3 212/3/3
f 218/1/3 215/1/3 214/1/3
f 219/1/3 215/1/3 218/1/3
f 221/3/3 217/3/3 216/3/3
f 222/3/3 217/3/3 221/3/3
f 225/1/3 221/1/3 220/1/3
f 226/1/3 221/1/3 225/1/3
f 227/1/3 224/1/3 223/1/3
f 228/1/3 224/1/3 227/1/3
f 229/1/3 224/1/3 228/1/3
f 230/1/3 224/1/3 229/1/3
f 231/1/4 232/1/4 234/1/4
f 234/1/4 232/1/4 235/1/4
f 233/1/4 234/1/4 237/1/4
f 235/1/4 236/1/4 237/1/4
f 234/1/4 235/1/4 237/1/4
f 237/1/4 236/1/4 238/1/4
f 238/1/4 236/1/4 239/1/4
f 239/1/4 236/1/4 240/1/4
f 240/1/4 236/1/4 241/1/4
f 241/1/4 236/1/4 242/1/4
f 238/2/4 239/2/4 243/2/4
f 243/2/4 239/2/4 244/2/4
f 239/1/4 240/1/4 245/1/4
f 244/2/4 239/2/4 245/2/4
f 245/1/4 240/1/4 246/1/4
f 246/1/4 240/1/4 247/1/4
f 240/2/4 241/2/4 248/2/4
f 247/1/4 240/1/4 248/1/4
f 248/2/4 241/2/4 249/2/4
f 249/2/4 241/2/4 250/2/4
f 244/2/4 245/2/4 251/2/4
f 245/2/4 246/2/4 251/2/4
f 251/2/4 246/2/4 252/2/4
f 246/1/4 247/1/4 253/1/4
f 252/2/4 246/2/4 253/2/4
f 248/2/4 249/2/4 254/2/4
f 253/1/4 247/1/4 254/1/4
f 247/2/4 248/2/4 254/2/4
f 254/2/4 249/2/4 255/2/4
f 255/2/4 249/2/4 256/2/4
f 252/2/4 253/2/4 259/2/4
f 253/2/4 254/2/4 259/2/4
f 254/2/4 255/2/4 259/2/4
f 259/2/4 255/2/4 260/2/4
f 260/2/4 255/2/4 261/2/4
f 261/2/4 255/2/4 262/2/4
f 257/1/4 258/1/4 263/1/4
f 263/1/4 258/1/4 264/1/4
f 260/2/4 261/2/4 266/2/4
f 266/2/4 261/2/4 267/2/4
f 264/3/4 265/3/4 268/3/4
f 268/3/4 265/3/4 269/3/4
f 270/1/4 271/1/4 274/1/4
f 274/1/4 271/1/4 275/1/4
f 272/3/4 273/3/4 277/3/4
f 277/3/4 273/3/4 278/3/4
f 276/1/4 277/1/4 281/1/4
f 281/1/4 277/1/4 282/1/4
f 279/1/4 280/1/4 283/1/4
f 283/1/4 280/1/4 284/1/4
f 284/1/4 280/1/4 285/1/4
f 285/1/4 280/1/4 286/1/4
f 287/2/4 288/2/4 291/2/4
f 291/2/4 288/2/4 292/2/4
f 289/2/4 290/2/4 293/2/4
f 293/2/4 290/2/4 294/2/4
f 294/2/4 290/2/4 295/2/4
f 287/2/4 291/2/4 296/2/4
f 292/3/4 293/3/4 297/3/4
f 293/2/4 294/2/4 298/2/4
f 297/3/4 293/3/4 298/3/4
f 298/2/4 294/2/4 299/2/4
f 295/2/4 290/2/4 300/2/4
f 296/2/4 297/2/4 301/2/4
f 287/2/4 296/2/4 301/2/4
f 301/2/4 297/2/4 302/2/4
f 298/2/4 299/2/4 303/2/4
f 299/2/4 300/2/4 303/2/4
f 300/2/4 290/2/4 304/2/4
f 303/2/4 300/2/4 304/2/4
f 305/1/4 306/1/4 309/1/4
f 309/1/4 306/1/4 310/1/4
f 307/1/4 308/1/4 311/1/4
f 311/1/4 308/1/4 312/1/4
f 315/2/5 314/2/5 313/2/5
f 316/2/5 314/2/5 315/2/5
f 319/1/5 318/1/5 317/1/5
f 320/1/5 318/1/5 319/1/5
f 325/1/5 322/1/5 321/1/5
f 326/1/5 322/1/5 325/1/5
f 327/1/5 324/1/5 323/1/5
f 328/1/5 324/1/5 327/1/5
f 331/1/5 330/1/5 329/1/5
f 332/1/5 330/1/5 331/1/5
f 335/1/5 334/1/5 333/1/5
f 336/1/5 334/1/5 335/1/5
f 341/1/5 338/1/5 337/1/5
f 342/1/5 338/1/5 341/1/5
f 343/2/5 340/2/5 339/2/5
f 344/2/5 340/2/5 343/2/5
f 347/2/5 346/2/5 345/2/5
f 348/2/5 346/2/5 347/2/5
f 351/2/5 350/2/5 349/2/5
f 352/2/5 350/2/5 351/2/5
f 357/2/5 354/2/5 353/2/5
f 358/2/5 354/2/5 357/2/5
f 359/2/5 356/2/5 355/2/5
f 360/2/5 356/2/5 359/2/5
f 365/2/5 362/2/5 361/2/5
f 366/2/5 362/2/5 365/2/5
f 367/2/5 364/2/5 363/2/5
f 368/2/5 364/2/5 367/2/5
f 373/2/5 370/2/5 369/2/5
f 374/2/5 370/2/5 373/2/5
f 375/1/5 372/1/5 371/1/5
f 376/1/5 372/1/5 375/1/5
f 379/1/5 378/1/5 377/1/5
f 380/1/5 378/1/5 379/1/5
f 383/1/5 382/1/5 381/1/5
f 384/1/5 382/1/5 383/1/5
f 387/1/5 386/1/5 385/1/5
f 388/1/5 386/1/5 387/1/5
f 389/1/6 390/1/6 392/1/6
f 392/1/6 390/1/6 393/1/6
f 391/2/6 392/2/6 396/2/6
f 396/2/6 392/2/6 397/2/6
f 393/2/6 394/2/6 398/2/6
f 398/2/6 394/2/6 399/2/6
f 395/1/6 396/1/6 401/1/6
f 401/1/6 396/1/6 402/1/6
f 399/1/6 400/1/6 405/1/6
f 405/1/6 400/1/6 406/1/6
f 402/2/6 403/2/6 407/2/6
f 407/2/6 403/2/6 408/2/6
f 404/2/6 405/2/6 409/2/6
f 409/2/6 405/2/6 410/2/6
f 408/1/6 409/1/6 411/1/6
f 411/1/6 409/1/6 412/1/6
f 413/1/6 414/1/6 415/1/6
f 415/1/6 414/1/6 416/1/6
f 417/2/6 418/2/6 421/2/6
f 421/2/6 418/2/6 422/2/6
f 419/1/6 420/1/6 423/1/6
f 423/1/6 420/1/6 424/1/6
f 425/1/6 426/1/6 427/1/6
f 427/1/6 426/1/6 428/1/6
f 429/2/6 430/2/6 431/2/6
f 431/2/6 430/2/6 432/2/6
f 429/2/6 431/2/6 433/2/6
f 432/2/6 430/2/6 434/2/6
f 429/2/6 433/2/6 435/2/6
f 433/2/6 434/2/6 435/2/6
f 434/2/6 430/2/6 436/2/6
f 435/2/6 434/2/6 436/2/6
f 437/2/6 438/2/6 441/2/6
f 441/2/6 438/2/6 442/2/6
f 439/1/6 440/1/6 443/1/6
f 443/1/6 440/1/6 444/1/6
f 445/2/6 446/2/6 447/2/6
f 447/2/6 446/2/6 448/2/6
f 449/1/6 450/1/6 453/1/6
f 453/1/6 450/1/6 454/1/6
f 451/2/6 452/2/6 455/2/6
f 455/2/6 452/2/6 456/2/6
f 457/1/6 458/1/6 459/1/6
f 459/1/6 458/1/6 460/1/6
