# MagicaVoxel @ Ephtracy

# group
o Weapon

# material
mtllib Orc_Boss_AxeMann-0-Weapon.mtl
usemtl palette

# normals
vn -1 0 0
vn 1 0 0
vn 0 0 1
vn 0 0 -1
vn 0 -1 0
vn 0 1 0

# texcoords
vt 0.00195312 0.5
vt 0.912109 0.5
vt 0.939453 0.5
vt 0.955078 0.5
vt 0.958984 0.5

# verts
v -3 3.8 -5.96046e-08
v -3 3.8 -0.1
v -3 4.8 -5.96046e-08
v -3 4.8 -0.1
v -2.9 3.7 -5.96046e-08
v -2.9 3.7 -0.1
v -2.9 3.8 -5.96046e-08
v -2.9 3.8 -0.1
v -2.9 4.8 -5.96046e-08
v -2.9 4.8 -0.1
v -2.9 4.9 -5.96046e-08
v -2.9 4.9 -0.1
v -2.7 3.6 -5.96046e-08
v -2.7 3.6 -0.1
v -2.7 3.7 -5.96046e-08
v -2.7 3.7 -0.1
v -2.7 4.9 -5.96046e-08
v -2.7 4.9 -0.1
v -2.7 5 -5.96046e-08
v -2.7 5 -0.1
v -2.2 4.1 0.2
v -2.2 4.1 -5.96046e-08
v -2.2 4.1 -0.1
v -2.2 4.1 -0.3
v -2.2 4.2 0.2
v -2.2 4.2 -5.96046e-08
v -2.2 4.2 -0.1
v -2.2 4.2 -0.3
v -2.2 4.4 0.2
v -2.2 4.4 -5.96046e-08
v -2.2 4.4 -0.1
v -2.2 4.4 -0.3
v -2.2 4.5 0.2
v -2.2 4.5 -5.96046e-08
v -2.2 4.5 -0.1
v -2.2 4.5 -0.3
v -2.1 1.5 0.0999999
v -2.1 1.5 -0.2
v -2.1 1.6 0.0999999
v -2.1 1.6 -5.96046e-08
v -2.1 1.6 -0.1
v -2.1 1.6 -0.2
v -2.1 1.9 -5.96046e-08
v -2.1 1.9 -0.1
v -2.1 2.3 -5.96046e-08
v -2.1 2.3 -0.1
v -2.1 2.5 0.0999999
v -2.1 2.5 -5.96046e-08
v -2.1 2.5 -0.1
v -2.1 2.5 -0.2
v -2.1 2.6 0.0999999
v -2.1 2.6 -5.96046e-08
v -2.1 2.6 -0.1
v -2.1 2.6 -0.2
v -2.1 3.9 0.0999999
v -2.1 3.9 -5.96046e-08
v -2.1 3.9 -0.1
v -2.1 3.9 -0.2
v -2.1 4 0.0999999
v -2.1 4 -0.2
v -2.1 4.1 0.0999999
v -2.1 4.1 -0.2
v -2.1 4.2 0.0999999
v -2.1 4.2 -5.96046e-08
v -2.1 4.2 -0.1
v -2.1 4.2 -0.2
v -2.1 4.4 0.0999999
v -2.1 4.4 -5.96046e-08
v -2.1 4.4 -0.1
v -2.1 4.4 -0.2
v -2.1 4.5 0.0999999
v -2.1 4.5 -0.2
v -2.1 4.6 0.0999999
v -2.1 4.6 -0.2
v -2.1 4.7 0.0999999
v -2.1 4.7 -0.2
v -2 1.6 0.0999999
v -2 1.6 -5.96046e-08
v -2 1.6 -0.1
v -2 1.6 -0.2
v -2 1.9 0.0999999
v -2 1.9 -5.96046e-08
v -2 1.9 -0.1
v -2 1.9 -0.2
v -2 2.3 0.0999999
v -2 2.3 -5.96046e-08
v -2 2.3 -0.1
v -2 2.3 -0.2
v -2 2.5 0.0999999
v -2 2.5 -5.96046e-08
v -2 2.5 -0.1
v -2 2.5 -0.2
v -2 2.6 0.0999999
v -2 2.6 -5.96046e-08
v -2 2.6 -0.1
v -2 2.6 -0.2
v -2 3.9 0.0999999
v -2 3.9 -5.96046e-08
v -2 3.9 -0.1
v -2 3.9 -0.2
v -2 4.7 -5.96046e-08
v -2 4.7 -0.1
v -2 4.9 -5.96046e-08
v -2 4.9 -0.1
v -2.4 3.8 -5.96046e-08
v -2.4 3.8 -0.1
v -2.4 4 -5.96046e-08
v -2.4 4 -0.1
v -2.4 4.6 -5.96046e-08
v -2.4 4.6 -0.1
v -2.4 4.8 -5.96046e-08
v -2.4 4.8 -0.1
v -2.3 3.7 -5.96046e-08
v -2.3 3.7 -0.1
v -2.3 3.8 -5.96046e-08
v -2.3 3.8 -0.1
v -2.3 4.8 -5.96046e-08
v -2.3 4.8 -0.1
v -2.3 4.9 -5.96046e-08
v -2.3 4.9 -0.1
v -2.2 3.6 -5.96046e-08
v -2.2 3.6 -0.1
v -2.2 3.7 -5.96046e-08
v -2.2 3.7 -0.1
v -2.2 4 -5.96046e-08
v -2.2 4 -0.1
v -2.2 4.1 -5.96046e-08
v -2.2 4.1 -0.1
v -2.2 4.5 -5.96046e-08
v -2.2 4.5 -0.1
v -2.2 4.6 -5.96046e-08
v -2.2 4.6 -0.1
v -2.2 4.9 -5.96046e-08
v -2.2 4.9 -0.1
v -2.2 5 -5.96046e-08
v -2.2 5 -0.1
v -1.9 1.6 0.0999999
v -1.9 1.6 -5.96046e-08
v -1.9 1.6 -0.1
v -1.9 1.6 -0.2
v -1.9 1.9 0.0999999
v -1.9 1.9 -5.96046e-08
v -1.9 1.9 -0.1
v -1.9 1.9 -0.2
v -1.9 2.3 0.0999999
v -1.9 2.3 -5.96046e-08
v -1.9 2.3 -0.1
v -1.9 2.3 -0.2
v -1.9 2.5 0.0999999
v -1.9 2.5 -5.96046e-08
v -1.9 2.5 -0.1
v -1.9 2.5 -0.2
v -1.9 2.6 0.0999999
v -1.9 2.6 -5.96046e-08
v -1.9 2.6 -0.1
v -1.9 2.6 -0.2
v -1.9 3.9 0.0999999
v -1.9 3.9 -5.96046e-08
v -1.9 3.9 -0.1
v -1.9 3.9 -0.2
v -1.9 4.7 -5.96046e-08
v -1.9 4.7 -0.1
v -1.9 4.9 -5.96046e-08
v -1.9 4.9 -0.1
v -1.8 1.5 0.0999999
v -1.8 1.5 -0.2
v -1.8 1.6 0.0999999
v -1.8 1.6 -5.96046e-08
v -1.8 1.6 -0.1
v -1.8 1.6 -0.2
v -1.8 1.9 -5.96046e-08
v -1.8 1.9 -0.1
v -1.8 2.3 -5.96046e-08
v -1.8 2.3 -0.1
v -1.8 2.5 0.0999999
v -1.8 2.5 -5.96046e-08
v -1.8 2.5 -0.1
v -1.8 2.5 -0.2
v -1.8 2.6 0.0999999
v -1.8 2.6 -5.96046e-08
v -1.8 2.6 -0.1
v -1.8 2.6 -0.2
v -1.8 3.9 0.0999999
v -1.8 3.9 -5.96046e-08
v -1.8 3.9 -0.1
v -1.8 3.9 -0.2
v -1.8 4 0.0999999
v -1.8 4 -0.2
v -1.8 4.1 0.0999999
v -1.8 4.1 -0.2
v -1.8 4.2 0.0999999
v -1.8 4.2 -0.2
v -1.8 4.4 0.0999999
v -1.8 4.4 -0.2
v -1.8 4.5 0.0999999
v -1.8 4.5 -0.2
v -1.8 4.6 0.0999999
v -1.8 4.6 -0.2
v -1.8 4.7 0.0999999
v -1.8 4.7 -0.2
v -1.7 4.1 0.2
v -1.7 4.1 -0.3
v -1.7 4.2 0.2
v -1.7 4.2 -0.3
v -1.7 4.4 0.2
v -1.7 4.4 -0.3
v -1.7 4.5 0.2
v -1.7 4.5 -0.3
v -2.2 4.1 0.2
v -2.2 4.2 0.2
v -2.2 4.4 0.2
v -2.2 4.5 0.2
v -1.7 4.1 0.2
v -1.7 4.2 0.2
v -1.7 4.4 0.2
v -1.7 4.5 0.2
v -2.1 1.5 0.0999999
v -2.1 1.6 0.0999999
v -2.1 2.5 0.0999999
v -2.1 2.6 0.0999999
v -2.1 3.9 0.0999999
v -2.1 4 0.0999999
v -2.1 4.1 0.0999999
v -2.1 4.2 0.0999999
v -2.1 4.4 0.0999999
v -2.1 4.5 0.0999999
v -2.1 4.6 0.0999999
v -2.1 4.7 0.0999999
v -2 1.6 0.0999999
v -2 1.9 0.0999999
v -2 2.3 0.0999999
v -2 2.5 0.0999999
v -2 2.6 0.0999999
v -2 3.9 0.0999999
v -1.9 1.6 0.0999999
v -1.9 1.9 0.0999999
v -1.9 2.3 0.0999999
v -1.9 2.5 0.0999999
v -1.9 2.6 0.0999999
v -1.9 3.9 0.0999999
v -1.8 1.5 0.0999999
v -1.8 1.6 0.0999999
v -1.8 2.5 0.0999999
v -1.8 2.6 0.0999999
v -1.8 3.9 0.0999999
v -1.8 4 0.0999999
v -1.8 4.1 0.0999999
v -1.8 4.2 0.0999999
v -1.8 4.4 0.0999999
v -1.8 4.5 0.0999999
v -1.8 4.6 0.0999999
v -1.8 4.7 0.0999999
v -3 3.8 -5.96046e-08
v -3 4.8 -5.96046e-08
v -2.9 3.7 -5.96046e-08
v -2.9 3.8 -5.96046e-08
v -2.9 4.8 -5.96046e-08
v -2.9 4.9 -5.96046e-08
v -2.8 3.7 -5.96046e-08
v -2.8 4 -5.96046e-08
v -2.8 4.6 -5.96046e-08
v -2.8 4.9 -5.96046e-08
v -2.7 3.6 -5.96046e-08
v -2.7 3.7 -5.96046e-08
v -2.7 3.8 -5.96046e-08
v -2.7 3.9 -5.96046e-08
v -2.7 4 -5.96046e-08
v -2.7 4.6 -5.96046e-08
v -2.7 4.7 -5.96046e-08
v -2.7 4.8 -5.96046e-08
v -2.7 4.9 -5.96046e-08
v -2.7 5 -5.96046e-08
v -2.6 3.7 -5.96046e-08
v -2.6 3.8 -5.96046e-08
v -2.6 3.9 -5.96046e-08
v -2.6 4.2 -5.96046e-08
v -2.6 4.4 -5.96046e-08
v -2.6 4.7 -5.96046e-08
v -2.6 4.8 -5.96046e-08
v -2.6 4.9 -5.96046e-08
v -2.5 3.8 -5.96046e-08
v -2.5 4.1 -5.96046e-08
v -2.5 4.5 -5.96046e-08
v -2.5 4.8 -5.96046e-08
v -2.4 3.7 -5.96046e-08
v -2.4 3.8 -5.96046e-08
v -2.4 4 -5.96046e-08
v -2.4 4.2 -5.96046e-08
v -2.4 4.4 -5.96046e-08
v -2.4 4.6 -5.96046e-08
v -2.4 4.8 -5.96046e-08
v -2.4 4.9 -5.96046e-08
v -2.3 3.7 -5.96046e-08
v -2.3 3.8 -5.96046e-08
v -2.3 4.1 -5.96046e-08
v -2.3 4.2 -5.96046e-08
v -2.3 4.4 -5.96046e-08
v -2.3 4.5 -5.96046e-08
v -2.3 4.8 -5.96046e-08
v -2.3 4.9 -5.96046e-08
v -2.2 3.6 -5.96046e-08
v -2.2 3.7 -5.96046e-08
v -2.2 4 -5.96046e-08
v -2.2 4.1 -5.96046e-08
v -2.2 4.2 -5.96046e-08
v -2.2 4.4 -5.96046e-08
v -2.2 4.5 -5.96046e-08
v -2.2 4.6 -5.96046e-08
v -2.2 4.9 -5.96046e-08
v -2.2 5 -5.96046e-08
v -2.1 1.6 -5.96046e-08
v -2.1 1.9 -5.96046e-08
v -2.1 2.3 -5.96046e-08
v -2.1 2.5 -5.96046e-08
v -2.1 2.6 -5.96046e-08
v -2.1 3.9 -5.96046e-08
v -2.1 4.2 -5.96046e-08
v -2.1 4.4 -5.96046e-08
v -2 1.6 -5.96046e-08
v -2 1.9 -5.96046e-08
v -2 2.3 -5.96046e-08
v -2 2.5 -5.96046e-08
v -2 2.6 -5.96046e-08
v -2 3.9 -5.96046e-08
v -2 4.7 -5.96046e-08
v -2 4.9 -5.96046e-08
v -1.9 1.6 -5.96046e-08
v -1.9 1.9 -5.96046e-08
v -1.9 2.3 -5.96046e-08
v -1.9 2.5 -5.96046e-08
v -1.9 2.6 -5.96046e-08
v -1.9 3.9 -5.96046e-08
v -1.9 4.7 -5.96046e-08
v -1.9 4.9 -5.96046e-08
v -1.8 1.6 -5.96046e-08
v -1.8 1.9 -5.96046e-08
v -1.8 2.3 -5.96046e-08
v -1.8 2.5 -5.96046e-08
v -1.8 2.6 -5.96046e-08
v -1.8 3.9 -5.96046e-08
v -3 3.8 -0.1
v -3 4.8 -0.1
v -2.9 3.7 -0.1
v -2.9 3.8 -0.1
v -2.9 4.8 -0.1
v -2.9 4.9 -0.1
v -2.8 3.7 -0.1
v -2.8 4 -0.1
v -2.8 4.6 -0.1
v -2.8 4.9 -0.1
v -2.7 3.6 -0.1
v -2.7 3.7 -0.1
v -2.7 3.8 -0.1
v -2.7 3.9 -0.1
v -2.7 4 -0.1
v -2.7 4.6 -0.1
v -2.7 4.7 -0.1
v -2.7 4.8 -0.1
v -2.7 4.9 -0.1
v -2.7 5 -0.1
v -2.6 3.7 -0.1
v -2.6 3.8 -0.1
v -2.6 3.9 -0.1
v -2.6 4.2 -0.1
v -2.6 4.4 -0.1
v -2.6 4.7 -0.1
v -2.6 4.8 -0.1
v -2.6 4.9 -0.1
v -2.5 3.8 -0.1
v -2.5 4.1 -0.1
v -2.5 4.5 -0.1
v -2.5 4.8 -0.1
v -2.4 3.7 -0.1
v -2.4 3.8 -0.1
v -2.4 4 -0.1
v -2.4 4.2 -0.1
v -2.4 4.4 -0.1
v -2.4 4.6 -0.1
v -2.4 4.8 -0.1
v -2.4 4.9 -0.1
v -2.3 3.7 -0.1
v -2.3 3.8 -0.1
v -2.3 4.1 -0.1
v -2.3 4.2 -0.1
v -2.3 4.4 -0.1
v -2.3 4.5 -0.1
v -2.3 4.8 -0.1
v -2.3 4.9 -0.1
v -2.2 3.6 -0.1
v -2.2 3.7 -0.1
v -2.2 4 -0.1
v -2.2 4.1 -0.1
v -2.2 4.2 -0.1
v -2.2 4.4 -0.1
v -2.2 4.5 -0.1
v -2.2 4.6 -0.1
v -2.2 4.9 -0.1
v -2.2 5 -0.1
v -2.1 1.6 -0.1
v -2.1 1.9 -0.1
v -2.1 2.3 -0.1
v -2.1 2.5 -0.1
v -2.1 2.6 -0.1
v -2.1 3.9 -0.1
v -2.1 4.2 -0.1
v -2.1 4.4 -0.1
v -2 1.6 -0.1
v -2 1.9 -0.1
v -2 2.3 -0.1
v -2 2.5 -0.1
v -2 2.6 -0.1
v -2 3.9 -0.1
v -2 4.7 -0.1
v -2 4.9 -0.1
v -1.9 1.6 -0.1
v -1.9 1.9 -0.1
v -1.9 2.3 -0.1
v -1.9 2.5 -0.1
v -1.9 2.6 -0.1
v -1.9 3.9 -0.1
v -1.9 4.7 -0.1
v -1.9 4.9 -0.1
v -1.8 1.6 -0.1
v -1.8 1.9 -0.1
v -1.8 2.3 -0.1
v -1.8 2.5 -0.1
v -1.8 2.6 -0.1
v -1.8 3.9 -0.1
v -2.1 1.5 -0.2
v -2.1 1.6 -0.2
v -2.1 2.5 -0.2
v -2.1 2.6 -0.2
v -2.1 3.9 -0.2
v -2.1 4 -0.2
v -2.1 4.1 -0.2
v -2.1 4.2 -0.2
v -2.1 4.4 -0.2
v -2.1 4.5 -0.2
v -2.1 4.6 -0.2
v -2.1 4.7 -0.2
v -2 1.6 -0.2
v -2 1.9 -0.2
v -2 2.3 -0.2
v -2 2.5 -0.2
v -2 2.6 -0.2
v -2 3.9 -0.2
v -1.9 1.6 -0.2
v -1.9 1.9 -0.2
v -1.9 2.3 -0.2
v -1.9 2.5 -0.2
v -1.9 2.6 -0.2
v -1.9 3.9 -0.2
v -1.8 1.5 -0.2
v -1.8 1.6 -0.2
v -1.8 2.5 -0.2
v -1.8 2.6 -0.2
v -1.8 3.9 -0.2
v -1.8 4 -0.2
v -1.8 4.1 -0.2
v -1.8 4.2 -0.2
v -1.8 4.4 -0.2
v -1.8 4.5 -0.2
v -1.8 4.6 -0.2
v -1.8 4.7 -0.2
v -2.2 4.1 -0.3
v -2.2 4.2 -0.3
v -2.2 4.4 -0.3
v -2.2 4.5 -0.3
v -1.7 4.1 -0.3
v -1.7 4.2 -0.3
v -1.7 4.4 -0.3
v -1.7 4.5 -0.3
v -2.1 1.5 0.0999999
v -1.8 1.5 0.0999999
v -2.1 1.5 -0.2
v -1.8 1.5 -0.2
v -2 2.3 0.0999999
v -1.9 2.3 0.0999999
v -2.1 2.3 -5.96046e-08
v -2 2.3 -5.96046e-08
v -1.9 2.3 -5.96046e-08
v -1.8 2.3 -5.96046e-08
v -2.1 2.3 -0.1
v -2 2.3 -0.1
v -1.9 2.3 -0.1
v -1.8 2.3 -0.1
v -2 2.3 -0.2
v -1.9 2.3 -0.2
v -2.1 2.5 0.0999999
v -2 2.5 0.0999999
v -1.9 2.5 0.0999999
v -1.8 2.5 0.0999999
v -2.1 2.5 -5.96046e-08
v -2 2.5 -5.96046e-08
v -1.9 2.5 -5.96046e-08
v -1.8 2.5 -5.96046e-08
v -2.1 2.5 -0.1
v -2 2.5 -0.1
v -1.9 2.5 -0.1
v -1.8 2.5 -0.1
v -2.1 2.5 -0.2
v -2 2.5 -0.2
v -1.9 2.5 -0.2
v -1.8 2.5 -0.2
v -2.7 3.6 -5.96046e-08
v -2.2 3.6 -5.96046e-08
v -2.7 3.6 -0.1
v -2.2 3.6 -0.1
v -2.9 3.7 -5.96046e-08
v -2.8 3.7 -5.96046e-08
v -2.7 3.7 -5.96046e-08
v -2.9 3.7 -0.1
v -2.8 3.7 -0.1
v -2.7 3.7 -0.1
v -3 3.8 -5.96046e-08
v -2.9 3.8 -5.96046e-08
v -3 3.8 -0.1
v -2.9 3.8 -0.1
v -2.1 3.9 0.0999999
v -2 3.9 0.0999999
v -1.9 3.9 0.0999999
v -1.8 3.9 0.0999999
v -2.1 3.9 -5.96046e-08
v -2 3.9 -5.96046e-08
v -1.9 3.9 -5.96046e-08
v -1.8 3.9 -5.96046e-08
v -2.1 3.9 -0.1
v -2 3.9 -0.1
v -1.9 3.9 -0.1
v -1.8 3.9 -0.1
v -2.1 3.9 -0.2
v -2 3.9 -0.2
v -1.9 3.9 -0.2
v -1.8 3.9 -0.2
v -2.4 4 -5.96046e-08
v -2.2 4 -5.96046e-08
v -2.4 4 -0.1
v -2.2 4 -0.1
v -2.2 4.1 0.2
v -1.7 4.1 0.2
v -2.1 4.1 0.0999999
v -1.8 4.1 0.0999999
v -2.2 4.1 -5.96046e-08
v -2.2 4.1 -0.1
v -2.1 4.1 -0.2
v -1.8 4.1 -0.2
v -2.2 4.1 -0.3
v -1.7 4.1 -0.3
v -2.2 4.4 0.2
v -1.7 4.4 0.2
v -2.1 4.4 0.0999999
v -1.8 4.4 0.0999999
v -2.2 4.4 -5.96046e-08
v -2.1 4.4 -5.96046e-08
v -2.2 4.4 -0.1
v -2.1 4.4 -0.1
v -2.1 4.4 -0.2
v -1.8 4.4 -0.2
v -2.2 4.4 -0.3
v -1.7 4.4 -0.3
v -2.4 4.8 -5.96046e-08
v -2.3 4.8 -5.96046e-08
v -2.4 4.8 -0.1
v -2.3 4.8 -0.1
v -2.3 4.9 -5.96046e-08
v -2.2 4.9 -5.96046e-08
v -2.3 4.9 -0.1
v -2.2 4.9 -0.1
v -2.1 1.6 0.0999999
v -2 1.6 0.0999999
v -1.9 1.6 0.0999999
v -1.8 1.6 0.0999999
v -2.1 1.6 -5.96046e-08
v -2 1.6 -5.96046e-08
v -1.9 1.6 -5.96046e-08
v -1.8 1.6 -5.96046e-08
v -2.1 1.6 -0.1
v -2 1.6 -0.1
v -1.9 1.6 -0.1
v -1.8 1.6 -0.1
v -2.1 1.6 -0.2
v -2 1.6 -0.2
v -1.9 1.6 -0.2
v -1.8 1.6 -0.2
v -2 1.9 0.0999999
v -1.9 1.9 0.0999999
v -2.1 1.9 -5.96046e-08
v -2 1.9 -5.96046e-08
v -1.9 1.9 -5.96046e-08
v -1.8 1.9 -5.96046e-08
v -2.1 1.9 -0.1
v -2 1.9 -0.1
v -1.9 1.9 -0.1
v -1.8 1.9 -0.1
v -2 1.9 -0.2
v -1.9 1.9 -0.2
v -2.1 2.6 0.0999999
v -2 2.6 0.0999999
v -1.9 2.6 0.0999999
v -1.8 2.6 0.0999999
v -2.1 2.6 -5.96046e-08
v -2 2.6 -5.96046e-08
v -1.9 2.6 -5.96046e-08
v -1.8 2.6 -5.96046e-08
v -2.1 2.6 -0.1
v -2 2.6 -0.1
v -1.9 2.6 -0.1
v -1.8 2.6 -0.1
v -2.1 2.6 -0.2
v -2 2.6 -0.2
v -1.9 2.6 -0.2
v -1.8 2.6 -0.2
v -2.3 3.7 -5.96046e-08
v -2.2 3.7 -5.96046e-08
v -2.3 3.7 -0.1
v -2.2 3.7 -0.1
v -2.4 3.8 -5.96046e-08
v -2.3 3.8 -5.96046e-08
v -2.4 3.8 -0.1
v -2.3 3.8 -0.1
v -2.2 4.2 0.2
v -1.7 4.2 0.2
v -2.1 4.2 0.0999999
v -1.8 4.2 0.0999999
v -2.2 4.2 -5.96046e-08
v -2.1 4.2 -5.96046e-08
v -2.2 4.2 -0.1
v -2.1 4.2 -0.1
v -2.1 4.2 -0.2
v -1.8 4.2 -0.2
v -2.2 4.2 -0.3
v -1.7 4.2 -0.3
v -2.2 4.5 0.2
v -1.7 4.5 0.2
v -2.1 4.5 0.0999999
v -1.8 4.5 0.0999999
v -2.2 4.5 -5.96046e-08
v -2.2 4.5 -0.1
v -2.1 4.5 -0.2
v -1.8 4.5 -0.2
v -2.2 4.5 -0.3
v -1.7 4.5 -0.3
v -2.4 4.6 -5.96046e-08
v -2.2 4.6 -5.96046e-08
v -2.4 4.6 -0.1
v -2.2 4.6 -0.1
v -2.1 4.7 0.0999999
v -1.8 4.7 0.0999999
v -2 4.7 -5.96046e-08
v -1.9 4.7 -5.96046e-08
v -2 4.7 -0.1
v -1.9 4.7 -0.1
v -2.1 4.7 -0.2
v -1.8 4.7 -0.2
v -3 4.8 -5.96046e-08
v -2.9 4.8 -5.96046e-08
v -3 4.8 -0.1
v -2.9 4.8 -0.1
v -2.9 4.9 -5.96046e-08
v -2.8 4.9 -5.96046e-08
v -2.7 4.9 -5.96046e-08
v -2 4.9 -5.96046e-08
v -1.9 4.9 -5.96046e-08
v -2.9 4.9 -0.1
v -2.8 4.9 -0.1
v -2.7 4.9 -0.1
v -2 4.9 -0.1
v -1.9 4.9 -0.1
v -2.7 5 -5.96046e-08
v -2.2 5 -5.96046e-08
v -2.7 5 -0.1
v -2.2 5 -0.1

# faces
f 3/5/1 2/5/1 1/5/1
f 4/5/1 2/5/1 3/5/1
f 7/5/1 6/5/1 5/5/1
f 8/5/1 6/5/1 7/5/1
f 11/5/1 10/5/1 9/5/1
f 12/5/1 10/5/1 11/5/1
f 15/3/1 14/3/1 13/3/1
f 16/3/1 14/3/1 15/3/1
f 19/3/1 18/3/1 17/3/1
f 20/3/1 18/3/1 19/3/1
f 25/4/1 22/4/1 21/4/1
f 26/4/1 22/4/1 25/4/1
f 27/4/1 24/4/1 23/4/1
f 28/4/1 24/4/1 27/4/1
f 33/4/1 30/4/1 29/4/1
f 34/4/1 30/4/1 33/4/1
f 35/4/1 32/4/1 31/4/1
f 36/4/1 32/4/1 35/4/1
f 39/1/1 38/1/1 37/1/1
f 40/1/1 38/1/1 39/1/1
f 41/1/1 38/1/1 40/1/1
f 42/1/1 38/1/1 41/1/1
f 43/4/1 41/4/1 40/4/1
f 44/4/1 41/4/1 43/4/1
f 48/4/1 46/4/1 45/4/1
f 49/4/1 46/4/1 48/4/1
f 51/1/1 49/1/1 48/1/1
f 51/1/1 50/1/1 49/1/1
f 51/1/1 48/1/1 47/1/1
f 52/1/1 50/1/1 51/1/1
f 53/1/1 50/1/1 52/1/1
f 54/1/1 50/1/1 53/1/1
f 56/2/1 53/2/1 52/2/1
f 57/2/1 53/2/1 56/2/1
f 59/1/1 56/1/1 55/1/1
f 59/1/1 58/1/1 57/1/1
f 59/1/1 57/1/1 56/1/1
f 60/1/1 58/1/1 59/1/1
f 61/4/1 60/4/1 59/4/1
f 62/4/1 60/4/1 61/4/1
f 67/4/1 64/4/1 63/4/1
f 68/4/1 64/4/1 67/4/1
f 69/4/1 66/4/1 65/4/1
f 70/4/1 66/4/1 69/4/1
f 73/4/1 72/4/1 71/4/1
f 74/4/1 72/4/1 73/4/1
f 75/1/1 74/1/1 73/1/1
f 76/1/1 74/1/1 75/1/1
f 81/4/1 78/4/1 77/4/1
f 82/4/1 78/4/1 81/4/1
f 83/4/1 80/4/1 79/4/1
f 84/4/1 80/4/1 83/4/1
f 89/4/1 86/4/1 85/4/1
f 90/4/1 86/4/1 89/4/1
f 91/4/1 88/4/1 87/4/1
f 92/4/1 88/4/1 91/4/1
f 97/2/1 94/2/1 93/2/1
f 98/2/1 94/2/1 97/2/1
f 99/2/1 96/2/1 95/2/1
f 100/2/1 96/2/1 99/2/1
f 103/3/1 102/3/1 101/3/1
f 104/3/1 102/3/1 103/3/1
f 105/3/2 106/3/2 107/3/2
f 107/3/2 106/3/2 108/3/2
f 109/3/2 110/3/2 111/3/2
f 111/3/2 110/3/2 112/3/2
f 113/3/2 114/3/2 115/3/2
f 115/3/2 114/3/2 116/3/2
f 117/3/2 118/3/2 119/3/2
f 119/3/2 118/3/2 120/3/2
f 121/3/2 122/3/2 123/3/2
f 123/3/2 122/3/2 124/3/2
f 125/3/2 126/3/2 127/3/2
f 127/3/2 126/3/2 128/3/2
f 129/3/2 130/3/2 131/3/2
f 131/3/2 130/3/2 132/3/2
f 133/3/2 134/3/2 135/3/2
f 135/3/2 134/3/2 136/3/2
f 137/4/2 138/4/2 141/4/2
f 141/4/2 138/4/2 142/4/2
f 139/4/2 140/4/2 143/4/2
f 143/4/2 140/4/2 144/4/2
f 145/4/2 146/4/2 149/4/2
f 149/4/2 146/4/2 150/4/2
f 147/4/2 148/4/2 151/4/2
f 151/4/2 148/4/2 152/4/2
f 153/2/2 154/2/2 157/2/2
f 157/2/2 154/2/2 158/2/2
f 155/2/2 156/2/2 159/2/2
f 159/2/2 156/2/2 160/2/2
f 161/3/2 162/3/2 163/3/2
f 163/3/2 162/3/2 164/3/2
f 165/1/2 166/1/2 167/1/2
f 167/1/2 166/1/2 168/1/2
f 168/1/2 166/1/2 169/1/2
f 169/1/2 166/1/2 170/1/2
f 168/4/2 169/4/2 171/4/2
f 171/4/2 169/4/2 172/4/2
f 173/4/2 174/4/2 176/4/2
f 176/4/2 174/4/2 177/4/2
f 176/1/2 177/1/2 179/1/2
f 177/1/2 178/1/2 179/1/2
f 175/1/2 176/1/2 179/1/2
f 179/1/2 178/1/2 180/1/2
f 180/1/2 178/1/2 181/1/2
f 181/1/2 178/1/2 182/1/2
f 180/2/2 181/2/2 184/2/2
f 184/2/2 181/2/2 185/2/2
f 183/1/2 184/1/2 187/1/2
f 185/1/2 186/1/2 187/1/2
f 184/1/2 185/1/2 187/1/2
f 187/1/2 186/1/2 188/1/2
f 187/4/2 188/4/2 189/4/2
f 189/4/2 188/4/2 190/4/2
f 191/4/2 192/4/2 193/4/2
f 193/4/2 192/4/2 194/4/2
f 195/4/2 196/4/2 197/4/2
f 197/4/2 196/4/2 198/4/2
f 197/1/2 198/1/2 199/1/2
f 199/1/2 198/1/2 200/1/2
f 201/4/2 202/4/2 203/4/2
f 203/4/2 202/4/2 204/4/2
f 205/4/2 206/4/2 207/4/2
f 207/4/2 206/4/2 208/4/2
f 213/4/3 210/4/3 209/4/3
f 214/4/3 210/4/3 213/4/3
f 215/4/3 212/4/3 211/4/3
f 216/4/3 212/4/3 215/4/3
f 229/1/3 218/1/3 217/1/3
f 232/1/3 220/1/3 219/1/3
f 233/1/3 220/1/3 232/1/3
f 234/1/3 222/1/3 221/1/3
f 235/4/3 230/4/3 229/4/3
f 235/1/3 229/1/3 217/1/3
f 236/4/3 230/4/3 235/4/3
f 237/4/3 232/4/3 231/4/3
f 238/1/3 233/1/3 232/1/3
f 238/4/3 232/4/3 237/4/3
f 239/2/3 234/2/3 233/2/3
f 239/1/3 233/1/3 238/1/3
f 240/1/3 222/1/3 234/1/3
f 240/2/3 234/2/3 239/2/3
f 241/1/3 235/1/3 217/1/3
f 242/1/3 235/1/3 241/1/3
f 243/1/3 239/1/3 238/1/3
f 244/1/3 239/1/3 243/1/3
f 245/1/3 222/1/3 240/1/3
f 246/4/3 223/4/3 222/4/3
f 246/1/3 222/1/3 245/1/3
f 247/4/3 223/4/3 246/4/3
f 248/4/3 225/4/3 224/4/3
f 249/4/3 225/4/3 248/4/3
f 250/4/3 227/4/3 226/4/3
f 251/1/3 228/1/3 227/1/3
f 251/4/3 227/4/3 250/4/3
f 252/1/3 228/1/3 251/1/3
f 256/5/3 254/5/3 253/5/3
f 257/5/3 254/5/3 256/5/3
f 259/5/3 256/5/3 255/5/3
f 259/5/3 258/5/3 257/5/3
f 259/5/3 257/5/3 256/5/3
f 260/5/3 258/5/3 259/5/3
f 261/5/3 258/5/3 260/5/3
f 262/5/3 258/5/3 261/5/3
f 264/3/3 260/3/3 259/3/3
f 265/3/3 260/3/3 264/3/3
f 266/3/3 260/3/3 265/3/3
f 267/5/3 261/5/3 260/5/3
f 267/3/3 260/3/3 266/3/3
f 268/3/3 262/3/3 261/3/3
f 268/5/3 261/5/3 267/5/3
f 269/3/3 262/3/3 268/3/3
f 270/3/3 262/3/3 269/3/3
f 271/3/3 262/3/3 270/3/3
f 273/3/3 264/3/3 263/3/3
f 273/3/3 265/3/3 264/3/3
f 274/1/3 266/1/3 265/1/3
f 274/3/3 265/3/3 273/3/3
f 275/3/3 267/3/3 266/3/3
f 275/1/3 266/1/3 274/1/3
f 275/3/3 268/3/3 267/3/3
f 275/3/3 269/3/3 268/3/3
f 276/3/3 269/3/3 275/3/3
f 277/3/3 269/3/3 276/3/3
f 278/1/3 270/1/3 269/1/3
f 278/3/3 269/3/3 277/3/3
f 279/3/3 271/3/3 270/3/3
f 279/1/3 270/1/3 278/1/3
f 279/3/3 272/3/3 271/3/3
f 280/3/3 272/3/3 279/3/3
f 281/1/3 274/1/3 273/1/3
f 281/1/3 276/1/3 275/1/3
f 281/1/3 275/1/3 274/1/3
f 282/1/3 276/1/3 281/1/3
f 283/1/3 278/1/3 277/1/3
f 283/1/3 280/1/3 279/1/3
f 283/1/3 279/1/3 278/1/3
f 284/1/3 280/1/3 283/1/3
f 285/3/3 273/3/3 263/3/3
f 285/1/3 281/1/3 273/1/3
f 286/3/3 282/3/3 281/3/3
f 286/1/3 281/1/3 285/1/3
f 287/3/3 282/3/3 286/3/3
f 288/1/3 276/1/3 282/1/3
f 288/3/3 277/3/3 276/3/3
f 289/1/3 283/1/3 277/1/3
f 289/3/3 277/3/3 288/3/3
f 290/3/3 284/3/3 283/3/3
f 291/1/3 280/1/3 284/1/3
f 291/3/3 284/3/3 290/3/3
f 292/3/3 272/3/3 280/3/3
f 292/1/3 280/1/3 291/1/3
f 293/3/3 285/3/3 263/3/3
f 293/3/3 286/3/3 285/3/3
f 294/3/3 286/3/3 293/3/3
f 295/3/3 282/3/3 287/3/3
f 295/1/3 289/1/3 288/1/3
f 295/1/3 288/1/3 282/1/3
f 296/1/3 289/1/3 295/1/3
f 297/1/3 283/1/3 289/1/3
f 297/1/3 289/1/3 296/1/3
f 298/3/3 290/3/3 283/3/3
f 298/1/3 283/1/3 297/1/3
f 299/3/3 292/3/3 291/3/3
f 300/3/3 272/3/3 292/3/3
f 300/3/3 292/3/3 299/3/3
f 301/3/3 293/3/3 263/3/3
f 302/3/3 293/3/3 301/3/3
f 303/3/3 296/3/3 295/3/3
f 303/3/3 295/3/3 287/3/3
f 304/3/3 296/3/3 303/3/3
f 305/1/3 297/1/3 296/1/3
f 305/3/3 296/3/3 304/3/3
f 306/3/3 298/3/3 297/3/3
f 306/1/3 297/1/3 305/1/3
f 307/3/3 290/3/3 298/3/3
f 307/3/3 298/3/3 306/3/3
f 308/3/3 290/3/3 307/3/3
f 309/3/3 272/3/3 300/3/3
f 310/3/3 272/3/3 309/3/3
f 317/1/3 306/1/3 305/1/3
f 318/1/3 306/1/3 317/1/3
f 319/4/3 312/4/3 311/4/3
f 320/4/3 312/4/3 319/4/3
f 321/4/3 314/4/3 313/4/3
f 322/4/3 314/4/3 321/4/3
f 323/2/3 316/2/3 315/2/3
f 324/2/3 316/2/3 323/2/3
f 333/3/3 326/3/3 325/3/3
f 334/3/3 326/3/3 333/3/3
f 335/4/3 328/4/3 327/4/3
f 336/4/3 328/4/3 335/4/3
f 337/4/3 330/4/3 329/4/3
f 338/4/3 330/4/3 337/4/3
f 339/2/3 332/2/3 331/2/3
f 340/2/3 332/2/3 339/2/3
f 341/5/4 342/5/4 344/5/4
f 344/5/4 342/5/4 345/5/4
f 343/5/4 344/5/4 347/5/4
f 345/5/4 346/5/4 347/5/4
f 344/5/4 345/5/4 347/5/4
f 347/5/4 346/5/4 348/5/4
f 348/5/4 346/5/4 349/5/4
f 349/5/4 346/5/4 350/5/4
f 347/3/4 348/3/4 352/3/4
f 352/3/4 348/3/4 353/3/4
f 353/3/4 348/3/4 354/3/4
f 348/5/4 349/5/4 355/5/4
f 354/3/4 348/3/4 355/3/4
f 349/3/4 350/3/4 356/3/4
f 355/5/4 349/5/4 356/5/4
f 356/3/4 350/3/4 357/3/4
f 357/3/4 350/3/4 358/3/4
f 358/3/4 350/3/4 359/3/4
f 351/3/4 352/3/4 361/3/4
f 352/3/4 353/3/4 361/3/4
f 353/1/4 354/1/4 362/1/4
f 361/3/4 353/3/4 362/3/4
f 354/3/4 355/3/4 363/3/4
f 362/1/4 354/1/4 363/1/4
f 355/3/4 356/3/4 363/3/4
f 356/3/4 357/3/4 363/3/4
f 363/3/4 357/3/4 364/3/4
f 364/3/4 357/3/4 365/3/4
f 357/1/4 358/1/4 366/1/4
f 365/3/4 357/3/4 366/3/4
f 358/3/4 359/3/4 367/3/4
f 366/1/4 358/1/4 367/1/4
f 359/3/4 360/3/4 367/3/4
f 367/3/4 360/3/4 368/3/4
f 361/1/4 362/1/4 369/1/4
f 363/1/4 364/1/4 369/1/4
f 362/1/4 363/1/4 369/1/4
f 369/1/4 364/1/4 370/1/4
f 365/1/4 366/1/4 371/1/4
f 367/1/4 368/1/4 371/1/4
f 366/1/4 367/1/4 371/1/4
f 371/1/4 368/1/4 372/1/4
f 351/3/4 361/3/4 373/3/4
f 361/1/4 369/1/4 373/1/4
f 369/3/4 370/3/4 374/3/4
f 373/1/4 369/1/4 374/1/4
f 374/3/4 370/3/4 375/3/4
f 370/1/4 364/1/4 376/1/4
f 364/3/4 365/3/4 376/3/4
f 365/1/4 371/1/4 377/1/4
f 376/3/4 365/3/4 377/3/4
f 371/3/4 372/3/4 378/3/4
f 372/1/4 368/1/4 379/1/4
f 378/3/4 372/3/4 379/3/4
f 368/3/4 360/3/4 380/3/4
f 379/1/4 368/1/4 380/1/4
f 351/3/4 373/3/4 381/3/4
f 373/3/4 374/3/4 381/3/4
f 381/3/4 374/3/4 382/3/4
f 375/3/4 370/3/4 383/3/4
f 376/1/4 377/1/4 383/1/4
f 370/1/4 376/1/4 383/1/4
f 383/1/4 377/1/4 384/1/4
f 377/1/4 371/1/4 385/1/4
f 384/1/4 377/1/4 385/1/4
f 371/3/4 378/3/4 386/3/4
f 385/1/4 371/1/4 386/1/4
f 379/3/4 380/3/4 387/3/4
f 380/3/4 360/3/4 388/3/4
f 387/3/4 380/3/4 388/3/4
f 351/3/4 381/3/4 389/3/4
f 389/3/4 381/3/4 390/3/4
f 383/3/4 384/3/4 391/3/4
f 375/3/4 383/3/4 391/3/4
f 391/3/4 384/3/4 392/3/4
f 384/1/4 385/1/4 393/1/4
f 392/3/4 384/3/4 393/3/4
f 385/3/4 386/3/4 394/3/4
f 393/1/4 385/1/4 394/1/4
f 386/3/4 378/3/4 395/3/4
f 394/3/4 386/3/4 395/3/4
f 395/3/4 378/3/4 396/3/4
f 388/3/4 360/3/4 397/3/4
f 397/3/4 360/3/4 398/3/4
f 393/1/4 394/1/4 405/1/4
f 405/1/4 394/1/4 406/1/4
f 399/4/4 400/4/4 407/4/4
f 407/4/4 400/4/4 408/4/4
f 401/4/4 402/4/4 409/4/4
f 409/4/4 402/4/4 410/4/4
f 403/2/4 404/2/4 411/2/4
f 411/2/4 404/2/4 412/2/4
f 413/3/4 414/3/4 421/3/4
f 421/3/4 414/3/4 422/3/4
f 415/4/4 416/4/4 423/4/4
f 423/4/4 416/4/4 424/4/4
f 417/4/4 418/4/4 425/4/4
f 425/4/4 418/4/4 426/4/4
f 419/2/4 420/2/4 427/2/4
f 427/2/4 420/2/4 428/2/4
f 429/1/4 430/1/4 441/1/4
f 431/1/4 432/1/4 444/1/4
f 444/1/4 432/1/4 445/1/4
f 433/1/4 434/1/4 446/1/4
f 441/4/4 442/4/4 447/4/4
f 429/1/4 441/1/4 447/1/4
f 447/4/4 442/4/4 448/4/4
f 443/4/4 444/4/4 449/4/4
f 444/1/4 445/1/4 450/1/4
f 449/4/4 444/4/4 450/4/4
f 445/2/4 446/2/4 451/2/4
f 450/1/4 445/1/4 451/1/4
f 446/1/4 434/1/4 452/1/4
f 451/2/4 446/2/4 452/2/4
f 429/1/4 447/1/4 453/1/4
f 453/1/4 447/1/4 454/1/4
f 450/1/4 451/1/4 455/1/4
f 455/1/4 451/1/4 456/1/4
f 452/1/4 434/1/4 457/1/4
f 434/4/4 435/4/4 458/4/4
f 457/1/4 434/1/4 458/1/4
f 458/4/4 435/4/4 459/4/4
f 436/4/4 437/4/4 460/4/4
f 460/4/4 437/4/4 461/4/4
f 438/4/4 439/4/4 462/4/4
f 439/1/4 440/1/4 463/1/4
f 462/4/4 439/4/4 463/4/4
f 463/1/4 440/1/4 464/1/4
f 465/4/4 466/4/4 469/4/4
f 469/4/4 466/4/4 470/4/4
f 467/4/4 468/4/4 471/4/4
f 471/4/4 468/4/4 472/4/4
f 475/1/5 474/1/5 473/1/5
f 476/1/5 474/1/5 475/1/5
f 480/4/5 478/4/5 477/4/5
f 481/4/5 478/4/5 480/4/5
f 483/4/5 480/4/5 479/4/5
f 483/4/5 482/4/5 481/4/5
f 483/4/5 481/4/5 480/4/5
f 484/4/5 482/4/5 483/4/5
f 485/4/5 482/4/5 484/4/5
f 486/4/5 482/4/5 485/4/5
f 487/4/5 485/4/5 484/4/5
f 488/4/5 485/4/5 487/4/5
f 493/1/5 490/1/5 489/1/5
f 494/1/5 490/1/5 493/1/5
f 495/1/5 492/1/5 491/1/5
f 496/1/5 492/1/5 495/1/5
f 501/1/5 498/1/5 497/1/5
f 502/1/5 498/1/5 501/1/5
f 503/1/5 500/1/5 499/1/5
f 504/1/5 500/1/5 503/1/5
f 507/3/5 506/3/5 505/3/5
f 508/3/5 506/3/5 507/3/5
f 512/5/5 510/5/5 509/5/5
f 513/3/5 511/3/5 510/3/5
f 513/5/5 510/5/5 512/5/5
f 514/3/5 511/3/5 513/3/5
f 517/5/5 516/5/5 515/5/5
f 518/5/5 516/5/5 517/5/5
f 523/1/5 520/1/5 519/1/5
f 524/1/5 520/1/5 523/1/5
f 525/1/5 522/1/5 521/1/5
f 526/1/5 522/1/5 525/1/5
f 531/1/5 528/1/5 527/1/5
f 532/1/5 528/1/5 531/1/5
f 533/1/5 530/1/5 529/1/5
f 534/1/5 530/1/5 533/1/5
f 537/3/5 536/3/5 535/3/5
f 538/3/5 536/3/5 537/3/5
f 541/4/5 540/4/5 539/4/5
f 542/4/5 540/4/5 541/4/5
f 543/4/5 541/4/5 539/4/5
f 544/4/5 541/4/5 543/4/5
f 545/4/5 541/4/5 544/4/5
f 546/4/5 540/4/5 542/4/5
f 547/4/5 545/4/5 544/4/5
f 547/4/5 546/4/5 545/4/5
f 548/4/5 540/4/5 546/4/5
f 548/4/5 546/4/5 547/4/5
f 551/4/5 550/4/5 549/4/5
f 552/4/5 550/4/5 551/4/5
f 553/4/5 551/4/5 549/4/5
f 554/4/5 551/4/5 553/4/5
f 557/4/5 556/4/5 555/4/5
f 558/4/5 550/4/5 552/4/5
f 559/4/5 557/4/5 555/4/5
f 559/4/5 558/4/5 557/4/5
f 560/4/5 550/4/5 558/4/5
f 560/4/5 558/4/5 559/4/5
f 563/3/5 562/3/5 561/3/5
f 564/3/5 562/3/5 563/3/5
f 567/3/5 566/3/5 565/3/5
f 568/3/5 566/3/5 567/3/5
f 569/1/6 570/1/6 573/1/6
f 573/1/6 570/1/6 574/1/6
f 571/1/6 572/1/6 575/1/6
f 575/1/6 572/1/6 576/1/6
f 577/1/6 578/1/6 581/1/6
f 581/1/6 578/1/6 582/1/6
f 579/1/6 580/1/6 583/1/6
f 583/1/6 580/1/6 584/1/6
f 585/4/6 586/4/6 588/4/6
f 588/4/6 586/4/6 589/4/6
f 587/4/6 588/4/6 591/4/6
f 589/4/6 590/4/6 591/4/6
f 588/4/6 589/4/6 591/4/6
f 591/4/6 590/4/6 592/4/6
f 592/4/6 590/4/6 593/4/6
f 593/4/6 590/4/6 594/4/6
f 592/4/6 593/4/6 595/4/6
f 595/4/6 593/4/6 596/4/6
f 597/1/6 598/1/6 601/1/6
f 601/1/6 598/1/6 602/1/6
f 599/1/6 600/1/6 603/1/6
f 603/1/6 600/1/6 604/1/6
f 605/1/6 606/1/6 609/1/6
f 609/1/6 606/1/6 610/1/6
f 607/1/6 608/1/6 611/1/6
f 611/1/6 608/1/6 612/1/6
f 613/3/6 614/3/6 615/3/6
f 615/3/6 614/3/6 616/3/6
f 617/3/6 618/3/6 619/3/6
f 619/3/6 618/3/6 620/3/6
f 621/4/6 622/4/6 623/4/6
f 623/4/6 622/4/6 624/4/6
f 621/4/6 623/4/6 625/4/6
f 625/4/6 623/4/6 626/4/6
f 627/4/6 628/4/6 629/4/6
f 624/4/6 622/4/6 630/4/6
f 627/4/6 629/4/6 631/4/6
f 629/4/6 630/4/6 631/4/6
f 630/4/6 622/4/6 632/4/6
f 631/4/6 630/4/6 632/4/6
f 633/4/6 634/4/6 635/4/6
f 635/4/6 634/4/6 636/4/6
f 633/4/6 635/4/6 637/4/6
f 637/4/6 635/4/6 638/4/6
f 638/4/6 635/4/6 639/4/6
f 636/4/6 634/4/6 640/4/6
f 638/4/6 639/4/6 641/4/6
f 639/4/6 640/4/6 641/4/6
f 640/4/6 634/4/6 642/4/6
f 641/4/6 640/4/6 642/4/6
f 643/3/6 644/3/6 645/3/6
f 645/3/6 644/3/6 646/3/6
f 647/1/6 648/1/6 649/1/6
f 649/1/6 648/1/6 650/1/6
f 647/1/6 649/1/6 651/1/6
f 650/1/6 648/1/6 652/1/6
f 647/1/6 651/1/6 653/1/6
f 651/1/6 652/1/6 653/1/6
f 652/1/6 648/1/6 654/1/6
f 653/1/6 652/1/6 654/1/6
f 655/5/6 656/5/6 657/5/6
f 657/5/6 656/5/6 658/5/6
f 659/5/6 660/5/6 664/5/6
f 660/3/6 661/3/6 665/3/6
f 664/5/6 660/5/6 665/5/6
f 665/3/6 661/3/6 666/3/6
f 662/3/6 663/3/6 667/3/6
f 667/3/6 663/3/6 668/3/6
f 669/3/6 670/3/6 671/3/6
f 671/3/6 670/3/6 672/3/6
