# MagicaVoxel @ Ephtracy

# group
o Sword

# material
mtllib Orc_King-1-Sword.mtl
usemtl palette

# normals
vn -1 0 0
vn 1 0 0
vn 0 0 1
vn 0 0 -1
vn 0 -1 0
vn 0 1 0

# texcoords
vt 0.912109 0.5
vt 0.939453 0.5
vt 0.955078 0.5
vt 0.958984 0.5
vt 0.962891 0.5

# verts
v -2.6 2.8 0.4
v -2.6 2.8 0.3
v -2.6 2.8 0.2
v -2.6 2.8 0.1
v -2.6 2.9 0.3
v -2.6 2.9 0.2
v -2.6 3 0.4
v -2.6 3 0.1
v -2.4 2.9 0.3
v -2.4 2.9 0.2
v -2.4 5.7 0.3
v -2.4 5.7 0.2
v -2.3 1.7 0.4
v -2.3 1.7 0.1
v -2.3 1.8 0.4
v -2.3 1.8 0.3
v -2.3 1.8 0.2
v -2.3 1.8 0.1
v -2.3 2.8 0.3
v -2.3 2.8 0.2
v -2.3 5.7 0.3
v -2.3 5.7 0.2
v -2.3 5.8 0.3
v -2.3 5.8 0.2
v -2.2 1.8 0.4
v -2.2 1.8 0.3
v -2.2 1.8 0.2
v -2.2 1.8 0.1
v -2.2 2.8 0.4
v -2.2 2.8 0.3
v -2.2 2.8 0.2
v -2.2 2.8 0.1
v -2.2 5.8 0.3
v -2.2 5.8 0.2
v -2.2 5.9 0.3
v -2.2 5.9 0.2
v -1.8 2.9 0.4
v -1.8 2.9 0.1
v -1.8 3 0.4
v -1.8 3 0.1
v -2.5 2.9 0.4
v -2.5 2.9 0.1
v -2.5 3 0.4
v -2.5 3 0.1
v -2.1 1.8 0.4
v -2.1 1.8 0.3
v -2.1 1.8 0.2
v -2.1 1.8 0.1
v -2.1 2.8 0.4
v -2.1 2.8 0.3
v -2.1 2.8 0.2
v -2.1 2.8 0.1
v -2.1 5.8 0.3
v -2.1 5.8 0.2
v -2.1 5.9 0.3
v -2.1 5.9 0.2
v -2 1.7 0.4
v -2 1.7 0.1
v -2 1.8 0.4
v -2 1.8 0.3
v -2 1.8 0.2
v -2 1.8 0.1
v -2 2.8 0.3
v -2 2.8 0.2
v -2 5.7 0.3
v -2 5.7 0.2
v -2 5.8 0.3
v -2 5.8 0.2
v -1.9 2.9 0.3
v -1.9 2.9 0.2
v -1.9 5.7 0.3
v -1.9 5.7 0.2
v -1.7 2.8 0.4
v -1.7 2.8 0.1
v -1.7 3 0.4
v -1.7 3 0.1
v -2.6 2.8 0.4
v -2.6 3 0.4
v -2.5 2.9 0.4
v -2.5 3 0.4
v -2.3 1.7 0.4
v -2.3 1.8 0.4
v -2.2 1.8 0.4
v -2.2 2.8 0.4
v -2.1 1.8 0.4
v -2.1 2.8 0.4
v -2 1.7 0.4
v -2 1.8 0.4
v -1.8 2.9 0.4
v -1.8 3 0.4
v -1.7 2.8 0.4
v -1.7 3 0.4
v -2.4 2.9 0.3
v -2.4 5.7 0.3
v -2.3 1.8 0.3
v -2.3 2.8 0.3
v -2.3 2.9 0.3
v -2.3 3 0.3
v -2.3 5.7 0.3
v -2.3 5.8 0.3
v -2.2 1.8 0.3
v -2.2 2.8 0.3
v -2.2 3 0.3
v -2.2 5.7 0.3
v -2.2 5.8 0.3
v -2.2 5.9 0.3
v -2.1 1.8 0.3
v -2.1 2.8 0.3
v -2.1 3 0.3
v -2.1 5.7 0.3
v -2.1 5.8 0.3
v -2.1 5.9 0.3
v -2 1.8 0.3
v -2 2.8 0.3
v -2 2.9 0.3
v -2 3 0.3
v -2 5.7 0.3
v -2 5.8 0.3
v -1.9 2.9 0.3
v -1.9 5.7 0.3
v -2.4 2.9 0.2
v -2.4 5.7 0.2
v -2.3 1.8 0.2
v -2.3 2.8 0.2
v -2.3 2.9 0.2
v -2.3 3 0.2
v -2.3 5.7 0.2
v -2.3 5.8 0.2
v -2.2 1.8 0.2
v -2.2 2.8 0.2
v -2.2 3 0.2
v -2.2 5.7 0.2
v -2.2 5.8 0.2
v -2.2 5.9 0.2
v -2.1 1.8 0.2
v -2.1 2.8 0.2
v -2.1 3 0.2
v -2.1 5.7 0.2
v -2.1 5.8 0.2
v -2.1 5.9 0.2
v -2 1.8 0.2
v -2 2.8 0.2
v -2 2.9 0.2
v -2 3 0.2
v -2 5.7 0.2
v -2 5.8 0.2
v -1.9 2.9 0.2
v -1.9 5.7 0.2
v -2.6 2.8 0.1
v -2.6 3 0.1
v -2.5 2.9 0.1
v -2.5 3 0.1
v -2.3 1.7 0.1
v -2.3 1.8 0.1
v -2.2 1.8 0.1
v -2.2 2.8 0.1
v -2.1 1.8 0.1
v -2.1 2.8 0.1
v -2 1.7 0.1
v -2 1.8 0.1
v -1.8 2.9 0.1
v -1.8 3 0.1
v -1.7 2.8 0.1
v -1.7 3 0.1
v -2.3 1.7 0.4
v -2 1.7 0.4
v -2.2 1.7 0.3
v -2.1 1.7 0.3
v -2.2 1.7 0.2
v -2.1 1.7 0.2
v -2.3 1.7 0.1
v -2 1.7 0.1
v -2.6 2.8 0.4
v -2.2 2.8 0.4
v -2.1 2.8 0.4
v -1.7 2.8 0.4
v -2.6 2.8 0.3
v -2.5 2.8 0.3
v -2.4 2.8 0.3
v -2.3 2.8 0.3
v -2.2 2.8 0.3
v -2.1 2.8 0.3
v -2 2.8 0.3
v -1.9 2.8 0.3
v -2.6 2.8 0.2
v -2.5 2.8 0.2
v -2.4 2.8 0.2
v -2.3 2.8 0.2
v -2.2 2.8 0.2
v -2.1 2.8 0.2
v -2 2.8 0.2
v -1.9 2.8 0.2
v -2.6 2.8 0.1
v -2.2 2.8 0.1
v -2.1 2.8 0.1
v -1.7 2.8 0.1
v -2.3 1.8 0.4
v -2.2 1.8 0.4
v -2.1 1.8 0.4
v -2 1.8 0.4
v -2.3 1.8 0.3
v -2.2 1.8 0.3
v -2.1 1.8 0.3
v -2 1.8 0.3
v -2.3 1.8 0.2
v -2.2 1.8 0.2
v -2.1 1.8 0.2
v -2 1.8 0.2
v -2.3 1.8 0.1
v -2.2 1.8 0.1
v -2.1 1.8 0.1
v -2 1.8 0.1
v -2.5 2.9 0.4
v -1.8 2.9 0.4
v -2.4 2.9 0.3
v -2.3 2.9 0.3
v -2 2.9 0.3
v -1.9 2.9 0.3
v -2.4 2.9 0.2
v -2.3 2.9 0.2
v -2 2.9 0.2
v -1.9 2.9 0.2
v -2.5 2.9 0.1
v -1.8 2.9 0.1
v -2.6 3 0.4
v -2.5 3 0.4
v -1.8 3 0.4
v -1.7 3 0.4
v -2.6 3 0.1
v -2.5 3 0.1
v -1.8 3 0.1
v -1.7 3 0.1
v -2.4 5.7 0.3
v -2.3 5.7 0.3
v -2 5.7 0.3
v -1.9 5.7 0.3
v -2.4 5.7 0.2
v -2.3 5.7 0.2
v -2 5.7 0.2
v -1.9 5.7 0.2
v -2.3 5.8 0.3
v -2.2 5.8 0.3
v -2.1 5.8 0.3
v -2 5.8 0.3
v -2.3 5.8 0.2
v -2.2 5.8 0.2
v -2.1 5.8 0.2
v -2 5.8 0.2
v -2.2 5.9 0.3
v -2.1 5.9 0.3
v -2.2 5.9 0.2
v -2.1 5.9 0.2

# faces
f 5/5/1 2/5/1 1/5/1
f 5/2/1 3/2/1 2/2/1
f 6/5/1 4/5/1 3/5/1
f 6/2/1 3/2/1 5/2/1
f 7/5/1 5/5/1 1/5/1
f 7/5/1 6/5/1 5/5/1
f 8/5/1 4/5/1 6/5/1
f 8/5/1 6/5/1 7/5/1
f 11/4/1 10/4/1 9/4/1
f 12/4/1 10/4/1 11/4/1
f 15/5/1 14/5/1 13/5/1
f 16/5/1 14/5/1 15/5/1
f 17/5/1 14/5/1 16/5/1
f 18/5/1 14/5/1 17/5/1
f 19/3/1 17/3/1 16/3/1
f 20/3/1 17/3/1 19/3/1
f 23/4/1 22/4/1 21/4/1
f 24/4/1 22/4/1 23/4/1
f 29/3/1 26/3/1 25/3/1
f 30/3/1 26/3/1 29/3/1
f 31/3/1 28/3/1 27/3/1
f 32/3/1 28/3/1 31/3/1
f 35/4/1 34/4/1 33/4/1
f 36/4/1 34/4/1 35/4/1
f 39/5/1 38/5/1 37/5/1
f 40/5/1 38/5/1 39/5/1
f 41/5/2 42/5/2 43/5/2
f 43/5/2 42/5/2 44/5/2
f 45/3/2 46/3/2 49/3/2
f 49/3/2 46/3/2 50/3/2
f 47/3/2 48/3/2 51/3/2
f 51/3/2 48/3/2 52/3/2
f 53/4/2 54/4/2 55/4/2
f 55/4/2 54/4/2 56/4/2
f 57/5/2 58/5/2 59/5/2
f 59/5/2 58/5/2 60/5/2
f 60/5/2 58/5/2 61/5/2
f 61/5/2 58/5/2 62/5/2
f 60/3/2 61/3/2 63/3/2
f 63/3/2 61/3/2 64/3/2
f 65/4/2 66/4/2 67/4/2
f 67/4/2 66/4/2 68/4/2
f 69/4/2 70/4/2 71/4/2
f 71/4/2 70/4/2 72/4/2
f 73/5/2 74/5/2 75/5/2
f 75/5/2 74/5/2 76/5/2
f 79/5/3 78/5/3 77/5/3
f 80/5/3 78/5/3 79/5/3
f 83/5/3 82/5/3 81/5/3
f 84/5/3 79/5/3 77/5/3
f 85/5/3 83/5/3 81/5/3
f 85/3/3 84/3/3 83/3/3
f 86/5/3 79/5/3 84/5/3
f 86/3/3 84/3/3 85/3/3
f 87/5/3 85/5/3 81/5/3
f 88/5/3 85/5/3 87/5/3
f 89/5/3 79/5/3 86/5/3
f 91/5/3 89/5/3 86/5/3
f 91/5/3 90/5/3 89/5/3
f 92/5/3 90/5/3 91/5/3
f 97/4/3 94/4/3 93/4/3
f 98/4/3 94/4/3 97/4/3
f 99/4/3 94/4/3 98/4/3
f 101/3/3 96/3/3 95/3/3
f 102/3/3 96/3/3 101/3/3
f 103/4/3 100/4/3 99/4/3
f 103/5/3 98/5/3 97/5/3
f 103/4/3 99/4/3 98/4/3
f 104/4/3 100/4/3 103/4/3
f 105/4/3 100/4/3 104/4/3
f 109/5/3 103/5/3 97/5/3
f 109/5/3 104/5/3 103/5/3
f 110/4/3 106/4/3 105/4/3
f 110/5/3 104/5/3 109/5/3
f 110/4/3 105/4/3 104/4/3
f 111/4/3 106/4/3 110/4/3
f 112/4/3 106/4/3 111/4/3
f 113/3/3 108/3/3 107/3/3
f 114/3/3 108/3/3 113/3/3
f 115/5/3 109/5/3 97/5/3
f 116/4/3 110/4/3 109/4/3
f 116/5/3 109/5/3 115/5/3
f 116/4/3 111/4/3 110/4/3
f 117/4/3 111/4/3 116/4/3
f 118/4/3 111/4/3 117/4/3
f 119/4/3 116/4/3 115/4/3
f 119/4/3 117/4/3 116/4/3
f 120/4/3 117/4/3 119/4/3
f 121/4/4 122/4/4 125/4/4
f 125/4/4 122/4/4 126/4/4
f 126/4/4 122/4/4 127/4/4
f 123/3/4 124/3/4 129/3/4
f 129/3/4 124/3/4 130/3/4
f 127/4/4 128/4/4 131/4/4
f 125/5/4 126/5/4 131/5/4
f 126/4/4 127/4/4 131/4/4
f 131/4/4 128/4/4 132/4/4
f 132/4/4 128/4/4 133/4/4
f 125/5/4 131/5/4 137/5/4
f 131/5/4 132/5/4 137/5/4
f 133/4/4 134/4/4 138/4/4
f 137/5/4 132/5/4 138/5/4
f 132/4/4 133/4/4 138/4/4
f 138/4/4 134/4/4 139/4/4
f 139/4/4 134/4/4 140/4/4
f 135/3/4 136/3/4 141/3/4
f 141/3/4 136/3/4 142/3/4
f 125/5/4 137/5/4 143/5/4
f 137/4/4 138/4/4 144/4/4
f 143/5/4 137/5/4 144/5/4
f 138/4/4 139/4/4 144/4/4
f 144/4/4 139/4/4 145/4/4
f 145/4/4 139/4/4 146/4/4
f 143/4/4 144/4/4 147/4/4
f 144/4/4 145/4/4 147/4/4
f 147/4/4 145/4/4 148/4/4
f 149/5/4 150/5/4 151/5/4
f 151/5/4 150/5/4 152/5/4
f 153/5/4 154/5/4 155/5/4
f 149/5/4 151/5/4 156/5/4
f 153/5/4 155/5/4 157/5/4
f 155/3/4 156/3/4 157/3/4
f 156/5/4 151/5/4 158/5/4
f 157/3/4 156/3/4 158/3/4
f 153/5/4 157/5/4 159/5/4
f 159/5/4 157/5/4 160/5/4
f 158/5/4 151/5/4 161/5/4
f 158/5/4 161/5/4 163/5/4
f 161/5/4 162/5/4 163/5/4
f 163/5/4 162/5/4 164/5/4
f 167/5/5 166/5/5 165/5/5
f 168/5/5 166/5/5 167/5/5
f 169/5/5 167/5/5 165/5/5
f 169/1/5 168/1/5 167/1/5
f 170/5/5 166/5/5 168/5/5
f 170/1/5 168/1/5 169/1/5
f 171/5/5 169/5/5 165/5/5
f 171/5/5 170/5/5 169/5/5
f 172/5/5 166/5/5 170/5/5
f 172/5/5 170/5/5 171/5/5
f 177/5/5 174/5/5 173/5/5
f 178/5/5 174/5/5 177/5/5
f 179/5/5 174/5/5 178/5/5
f 180/5/5 174/5/5 179/5/5
f 181/5/5 174/5/5 180/5/5
f 182/5/5 176/5/5 175/5/5
f 183/5/5 176/5/5 182/5/5
f 184/5/5 176/5/5 183/5/5
f 185/2/5 178/2/5 177/2/5
f 186/5/5 179/5/5 178/5/5
f 186/2/5 178/2/5 185/2/5
f 187/2/5 180/2/5 179/2/5
f 187/5/5 179/5/5 186/5/5
f 188/2/5 180/2/5 187/2/5
f 191/2/5 184/2/5 183/2/5
f 192/5/5 176/5/5 184/5/5
f 192/2/5 184/2/5 191/2/5
f 193/5/5 189/5/5 188/5/5
f 193/5/5 186/5/5 185/5/5
f 193/5/5 187/5/5 186/5/5
f 193/5/5 188/5/5 187/5/5
f 194/5/5 189/5/5 193/5/5
f 195/5/5 191/5/5 190/5/5
f 195/5/5 192/5/5 191/5/5
f 196/5/5 176/5/5 192/5/5
f 196/5/5 192/5/5 195/5/5
f 197/5/6 198/5/6 201/5/6
f 201/5/6 198/5/6 202/5/6
f 199/5/6 200/5/6 203/5/6
f 203/5/6 200/5/6 204/5/6
f 205/5/6 206/5/6 209/5/6
f 209/5/6 206/5/6 210/5/6
f 207/5/6 208/5/6 211/5/6
f 211/5/6 208/5/6 212/5/6
f 213/5/6 214/5/6 215/5/6
f 215/5/6 214/5/6 216/5/6
f 216/5/6 214/5/6 217/5/6
f 217/5/6 214/5/6 218/5/6
f 213/5/6 215/5/6 219/5/6
f 218/5/6 214/5/6 222/5/6
f 220/5/6 221/5/6 223/5/6
f 221/5/6 222/5/6 223/5/6
f 213/5/6 219/5/6 223/5/6
f 219/5/6 220/5/6 223/5/6
f 222/5/6 214/5/6 224/5/6
f 223/5/6 222/5/6 224/5/6
f 225/5/6 226/5/6 229/5/6
f 229/5/6 226/5/6 230/5/6
f 227/5/6 228/5/6 231/5/6
f 231/5/6 228/5/6 232/5/6
f 233/4/6 234/4/6 237/4/6
f 237/4/6 234/4/6 238/4/6
f 235/4/6 236/4/6 239/4/6
f 239/4/6 236/4/6 240/4/6
f 241/4/6 242/4/6 245/4/6
f 245/4/6 242/4/6 246/4/6
f 243/4/6 244/4/6 247/4/6
f 247/4/6 244/4/6 248/4/6
f 249/4/6 250/4/6 251/4/6
f 251/4/6 250/4/6 252/4/6
