# MagicaVoxel @ Ephtracy

# group
o Voxel

# material
mtllib Orc_Swordsmann_LevelTwo-0-Voxel.mtl
usemtl palette

# normals
vn -1 0 0
vn 1 0 0
vn 0 0 1
vn 0 0 -1
vn 0 -1 0
vn 0 1 0

# texcoords
vt 0.912109 0.5
vt 0.939453 0.5
vt 0.955078 0.5

# verts
v -1.9 2.5 0.2
v -1.9 2.5 -0.1
v -1.9 2.7 0.2
v -1.9 2.7 -0.1
v -1.7 2.6 0.1
v -1.7 2.6 0
v -1.7 3.9 0.1
v -1.7 3.9 0
v -1.6 1.6 0.2
v -1.6 1.6 -0.1
v -1.6 1.7 0.2
v -1.6 1.7 0.1
v -1.6 1.7 0
v -1.6 1.7 -0.1
v -1.6 2.5 0.1
v -1.6 2.5 0
v -1.6 3.9 0.1
v -1.6 3.9 0
v -1.6 4 0.1
v -1.6 4 0
v -1.5 1.7 0.2
v -1.5 1.7 0.1
v -1.5 1.7 0
v -1.5 1.7 -0.1
v -1.5 2.5 0.2
v -1.5 2.5 0.1
v -1.5 2.5 0
v -1.5 2.5 -0.1
v -1.5 4 0.1
v -1.5 4 0
v -1.5 4.1 0.1
v -1.5 4.1 0
v -1.1 2.6 0.2
v -1.1 2.6 -0.1
v -1.1 2.7 0.2
v -1.1 2.7 -0.1
v -1.8 2.6 0.2
v -1.8 2.6 -0.1
v -1.8 2.7 0.2
v -1.8 2.7 -0.1
v -1.4 1.7 0.2
v -1.4 1.7 0.1
v -1.4 1.7 0
v -1.4 1.7 -0.1
v -1.4 2.5 0.2
v -1.4 2.5 0.1
v -1.4 2.5 0
v -1.4 2.5 -0.1
v -1.4 4 0.1
v -1.4 4 0
v -1.4 4.1 0.1
v -1.4 4.1 0
v -1.3 1.6 0.2
v -1.3 1.6 -0.1
v -1.3 1.7 0.2
v -1.3 1.7 0.1
v -1.3 1.7 0
v -1.3 1.7 -0.1
v -1.3 2.5 0.1
v -1.3 2.5 0
v -1.3 3.9 0.1
v -1.3 3.9 0
v -1.3 4 0.1
v -1.3 4 0
v -1.2 2.6 0.1
v -1.2 2.6 0
v -1.2 3.9 0.1
v -1.2 3.9 0
v -1 2.5 0.2
v -1 2.5 -0.1
v -1 2.7 0.2
v -1 2.7 -0.1
v -1.9 2.5 0.2
v -1.9 2.7 0.2
v -1.8 2.6 0.2
v -1.8 2.7 0.2
v -1.6 1.6 0.2
v -1.6 1.7 0.2
v -1.5 1.7 0.2
v -1.5 2.5 0.2
v -1.4 1.7 0.2
v -1.4 2.5 0.2
v -1.3 1.6 0.2
v -1.3 1.7 0.2
v -1.1 2.6 0.2
v -1.1 2.7 0.2
v -1 2.5 0.2
v -1 2.7 0.2
v -1.7 2.6 0.1
v -1.7 3.9 0.1
v -1.6 1.7 0.1
v -1.6 2.5 0.1
v -1.6 2.6 0.1
v -1.6 2.7 0.1
v -1.6 3.9 0.1
v -1.6 4 0.1
v -1.5 1.7 0.1
v -1.5 2.5 0.1
v -1.5 2.7 0.1
v -1.5 2.8 0.1
v -1.5 4 0.1
v -1.5 4.1 0.1
v -1.4 1.7 0.1
v -1.4 2.5 0.1
v -1.4 2.7 0.1
v -1.4 2.8 0.1
v -1.4 4 0.1
v -1.4 4.1 0.1
v -1.3 1.7 0.1
v -1.3 2.5 0.1
v -1.3 2.6 0.1
v -1.3 2.7 0.1
v -1.3 3.9 0.1
v -1.3 4 0.1
v -1.2 2.6 0.1
v -1.2 3.9 0.1
v -1.7 2.6 0
v -1.7 3.9 0
v -1.6 1.7 0
v -1.6 2.5 0
v -1.6 2.6 0
v -1.6 2.7 0
v -1.6 3.9 0
v -1.6 4 0
v -1.5 1.7 0
v -1.5 2.5 0
v -1.5 2.7 0
v -1.5 2.8 0
v -1.5 4 0
v -1.5 4.1 0
v -1.4 1.7 0
v -1.4 2.5 0
v -1.4 2.7 0
v -1.4 2.8 0
v -1.4 4 0
v -1.4 4.1 0
v -1.3 1.7 0
v -1.3 2.5 0
v -1.3 2.6 0
v -1.3 2.7 0
v -1.3 3.9 0
v -1.3 4 0
v -1.2 2.6 0
v -1.2 3.9 0
v -1.9 2.5 -0.1
v -1.9 2.7 -0.1
v -1.8 2.6 -0.1
v -1.8 2.7 -0.1
v -1.6 1.6 -0.1
v -1.6 1.7 -0.1
v -1.5 1.7 -0.1
v -1.5 2.5 -0.1
v -1.4 1.7 -0.1
v -1.4 2.5 -0.1
v -1.3 1.6 -0.1
v -1.3 1.7 -0.1
v -1.1 2.6 -0.1
v -1.1 2.7 -0.1
v -1 2.5 -0.1
v -1 2.7 -0.1
v -1.6 1.6 0.2
v -1.3 1.6 0.2
v -1.6 1.6 -0.1
v -1.3 1.6 -0.1
v -1.9 2.5 0.2
v -1.5 2.5 0.2
v -1.4 2.5 0.2
v -1 2.5 0.2
v -1.6 2.5 0.1
v -1.5 2.5 0.1
v -1.4 2.5 0.1
v -1.3 2.5 0.1
v -1.6 2.5 0
v -1.5 2.5 0
v -1.4 2.5 0
v -1.3 2.5 0
v -1.9 2.5 -0.1
v -1.5 2.5 -0.1
v -1.4 2.5 -0.1
v -1 2.5 -0.1
v -1.6 1.7 0.2
v -1.5 1.7 0.2
v -1.4 1.7 0.2
v -1.3 1.7 0.2
v -1.6 1.7 0.1
v -1.5 1.7 0.1
v -1.4 1.7 0.1
v -1.3 1.7 0.1
v -1.6 1.7 0
v -1.5 1.7 0
v -1.4 1.7 0
v -1.3 1.7 0
v -1.6 1.7 -0.1
v -1.5 1.7 -0.1
v -1.4 1.7 -0.1
v -1.3 1.7 -0.1
v -1.8 2.6 0.2
v -1.1 2.6 0.2
v -1.7 2.6 0.1
v -1.6 2.6 0.1
v -1.3 2.6 0.1
v -1.2 2.6 0.1
v -1.7 2.6 0
v -1.6 2.6 0
v -1.3 2.6 0
v -1.2 2.6 0
v -1.8 2.6 -0.1
v -1.1 2.6 -0.1
v -1.9 2.7 0.2
v -1.8 2.7 0.2
v -1.1 2.7 0.2
v -1 2.7 0.2
v -1.9 2.7 -0.1
v -1.8 2.7 -0.1
v -1.1 2.7 -0.1
v -1 2.7 -0.1
v -1.7 3.9 0.1
v -1.6 3.9 0.1
v -1.3 3.9 0.1
v -1.2 3.9 0.1
v -1.7 3.9 0
v -1.6 3.9 0
v -1.3 3.9 0
v -1.2 3.9 0
v -1.6 4 0.1
v -1.5 4 0.1
v -1.4 4 0.1
v -1.3 4 0.1
v -1.6 4 0
v -1.5 4 0
v -1.4 4 0
v -1.3 4 0
v -1.5 4.1 0.1
v -1.4 4.1 0.1
v -1.5 4.1 0
v -1.4 4.1 0

# faces
f 3/2/1 2/2/1 1/2/1
f 4/2/1 2/2/1 3/2/1
f 7/1/1 6/1/1 5/1/1
f 8/1/1 6/1/1 7/1/1
f 11/1/1 10/1/1 9/1/1
f 12/1/1 10/1/1 11/1/1
f 13/1/1 10/1/1 12/1/1
f 14/1/1 10/1/1 13/1/1
f 15/3/1 13/3/1 12/3/1
f 16/3/1 13/3/1 15/3/1
f 19/1/1 18/1/1 17/1/1
f 20/1/1 18/1/1 19/1/1
f 25/3/1 22/3/1 21/3/1
f 26/3/1 22/3/1 25/3/1
f 27/3/1 24/3/1 23/3/1
f 28/3/1 24/3/1 27/3/1
f 31/1/1 30/1/1 29/1/1
f 32/1/1 30/1/1 31/1/1
f 35/2/1 34/2/1 33/2/1
f 36/2/1 34/2/1 35/2/1
f 37/2/2 38/2/2 39/2/2
f 39/2/2 38/2/2 40/2/2
f 41/3/2 42/3/2 45/3/2
f 45/3/2 42/3/2 46/3/2
f 43/3/2 44/3/2 47/3/2
f 47/3/2 44/3/2 48/3/2
f 49/1/2 50/1/2 51/1/2
f 51/1/2 50/1/2 52/1/2
f 53/1/2 54/1/2 55/1/2
f 55/1/2 54/1/2 56/1/2
f 56/1/2 54/1/2 57/1/2
f 57/1/2 54/1/2 58/1/2
f 56/3/2 57/3/2 59/3/2
f 59/3/2 57/3/2 60/3/2
f 61/1/2 62/1/2 63/1/2
f 63/1/2 62/1/2 64/1/2
f 65/1/2 66/1/2 67/1/2
f 67/1/2 66/1/2 68/1/2
f 69/2/2 70/2/2 71/2/2
f 71/2/2 70/2/2 72/2/2
f 75/2/3 74/2/3 73/2/3
f 76/2/3 74/2/3 75/2/3
f 79/1/3 78/1/3 77/1/3
f 80/2/3 75/2/3 73/2/3
f 81/1/3 79/1/3 77/1/3
f 81/3/3 80/3/3 79/3/3
f 82/2/3 75/2/3 80/2/3
f 82/3/3 80/3/3 81/3/3
f 83/1/3 81/1/3 77/1/3
f 84/1/3 81/1/3 83/1/3
f 85/2/3 75/2/3 82/2/3
f 87/2/3 85/2/3 82/2/3
f 87/2/3 86/2/3 85/2/3
f 88/2/3 86/2/3 87/2/3
f 93/1/3 90/1/3 89/1/3
f 94/1/3 90/1/3 93/1/3
f 95/1/3 90/1/3 94/1/3
f 97/3/3 92/3/3 91/3/3
f 98/3/3 92/3/3 97/3/3
f 99/1/3 96/1/3 95/1/3
f 99/2/3 94/2/3 93/2/3
f 99/1/3 95/1/3 94/1/3
f 100/1/3 96/1/3 99/1/3
f 101/1/3 96/1/3 100/1/3
f 105/2/3 99/2/3 93/2/3
f 105/2/3 100/2/3 99/2/3
f 106/1/3 102/1/3 101/1/3
f 106/2/3 100/2/3 105/2/3
f 106/1/3 101/1/3 100/1/3
f 107/1/3 102/1/3 106/1/3
f 108/1/3 102/1/3 107/1/3
f 109/3/3 104/3/3 103/3/3
f 110/3/3 104/3/3 109/3/3
f 111/2/3 105/2/3 93/2/3
f 112/1/3 106/1/3 105/1/3
f 112/2/3 105/2/3 111/2/3
f 112/1/3 107/1/3 106/1/3
f 113/1/3 107/1/3 112/1/3
f 114/1/3 107/1/3 113/1/3
f 115/1/3 112/1/3 111/1/3
f 115/1/3 113/1/3 112/1/3
f 116/1/3 113/1/3 115/1/3
f 117/1/4 118/1/4 121/1/4
f 121/1/4 118/1/4 122/1/4
f 122/1/4 118/1/4 123/1/4
f 119/3/4 120/3/4 125/3/4
f 125/3/4 120/3/4 126/3/4
f 123/1/4 124/1/4 127/1/4
f 121/2/4 122/2/4 127/2/4
f 122/1/4 123/1/4 127/1/4
f 127/1/4 124/1/4 128/1/4
f 128/1/4 124/1/4 129/1/4
f 121/2/4 127/2/4 133/2/4
f 127/2/4 128/2/4 133/2/4
f 129/1/4 130/1/4 134/1/4
f 133/2/4 128/2/4 134/2/4
f 128/1/4 129/1/4 134/1/4
f 134/1/4 130/1/4 135/1/4
f 135/1/4 130/1/4 136/1/4
f 131/3/4 132/3/4 137/3/4
f 137/3/4 132/3/4 138/3/4
f 121/2/4 133/2/4 139/2/4
f 133/1/4 134/1/4 140/1/4
f 139/2/4 133/2/4 140/2/4
f 134/1/4 135/1/4 140/1/4
f 140/1/4 135/1/4 141/1/4
f 141/1/4 135/1/4 142/1/4
f 139/1/4 140/1/4 143/1/4
f 140/1/4 141/1/4 143/1/4
f 143/1/4 141/1/4 144/1/4
f 145/2/4 146/2/4 147/2/4
f 147/2/4 146/2/4 148/2/4
f 149/1/4 150/1/4 151/1/4
f 145/2/4 147/2/4 152/2/4
f 149/1/4 151/1/4 153/1/4
f 151/3/4 152/3/4 153/3/4
f 152/2/4 147/2/4 154/2/4
f 153/3/4 152/3/4 154/3/4
f 149/1/4 153/1/4 155/1/4
f 155/1/4 153/1/4 156/1/4
f 154/2/4 147/2/4 157/2/4
f 154/2/4 157/2/4 159/2/4
f 157/2/4 158/2/4 159/2/4
f 159/2/4 158/2/4 160/2/4
f 163/1/5 162/1/5 161/1/5
f 164/1/5 162/1/5 163/1/5
f 169/2/5 166/2/5 165/2/5
f 170/2/5 166/2/5 169/2/5
f 171/2/5 168/2/5 167/2/5
f 172/2/5 168/2/5 171/2/5
f 173/2/5 169/2/5 165/2/5
f 176/2/5 168/2/5 172/2/5
f 177/2/5 174/2/5 173/2/5
f 177/2/5 173/2/5 165/2/5
f 178/2/5 174/2/5 177/2/5
f 179/2/5 176/2/5 175/2/5
f 180/2/5 168/2/5 176/2/5
f 180/2/5 176/2/5 179/2/5
f 181/1/6 182/1/6 185/1/6
f 185/1/6 182/1/6 186/1/6
f 183/1/6 184/1/6 187/1/6
f 187/1/6 184/1/6 188/1/6
f 189/1/6 190/1/6 193/1/6
f 193/1/6 190/1/6 194/1/6
f 191/1/6 192/1/6 195/1/6
f 195/1/6 192/1/6 196/1/6
f 197/2/6 198/2/6 199/2/6
f 199/2/6 198/2/6 200/2/6
f 200/2/6 198/2/6 201/2/6
f 201/2/6 198/2/6 202/2/6
f 197/2/6 199/2/6 203/2/6
f 202/2/6 198/2/6 206/2/6
f 204/2/6 205/2/6 207/2/6
f 205/2/6 206/2/6 207/2/6
f 197/2/6 203/2/6 207/2/6
f 203/2/6 204/2/6 207/2/6
f 206/2/6 198/2/6 208/2/6
f 207/2/6 206/2/6 208/2/6
f 209/2/6 210/2/6 213/2/6
f 213/2/6 210/2/6 214/2/6
f 211/2/6 212/2/6 215/2/6
f 215/2/6 212/2/6 216/2/6
f 217/1/6 218/1/6 221/1/6
f 221/1/6 218/1/6 222/1/6
f 219/1/6 220/1/6 223/1/6
f 223/1/6 220/1/6 224/1/6
f 225/1/6 226/1/6 229/1/6
f 229/1/6 226/1/6 230/1/6
f 227/1/6 228/1/6 231/1/6
f 231/1/6 228/1/6 232/1/6
f 233/1/6 234/1/6 235/1/6
f 235/1/6 234/1/6 236/1/6
