# MagicaVoxel @ Ephtracy

# group
o 

# material
mtllib Orc_Axemann_LevelTwo-0.mtl
usemtl palette

# normals
vn -1 0 0
vn 1 0 0
vn 0 0 1
vn 0 0 -1
vn 0 -1 0
vn 0 1 0

# texcoords
vt 0.814453 0.5
vt 0.912109 0.5
vt 0.943359 0.5
vt 0.955078 0.5
vt 0.958984 0.5

# verts
v -3 3 0.1
v -3 3 0
v -3 4 0.1
v -3 4 0
v -2.9 2.9 0.1
v -2.9 2.9 0
v -2.9 3 0.1
v -2.9 3 0
v -2.9 4 0.1
v -2.9 4 0
v -2.9 4.1 0.1
v -2.9 4.1 0
v -2.3 1.7 0.1
v -2.3 1.7 0
v -2.3 1.8 0.1
v -2.3 1.8 0
v -2.2 1.6 0.2
v -2.2 1.6 -0.1
v -2.2 1.7 0.1
v -2.2 1.7 0
v -2.2 1.8 0.2
v -2.2 1.8 0.1
v -2.2 1.8 0
v -2.2 1.8 -0.1
v -2.2 3.3 0.2
v -2.2 3.3 0.1
v -2.2 3.3 0
v -2.2 3.3 -0.1
v -2.2 3.4 0.1
v -2.2 3.4 0
v -2.2 3.6 0.1
v -2.2 3.6 0
v -2.2 3.7 0.2
v -2.2 3.7 -0.1
v -2.1 1.7 0.3
v -2.1 1.7 0.2
v -2.1 1.7 -0.1
v -2.1 1.7 -0.2
v -2.1 1.8 0.3
v -2.1 1.8 0.2
v -2.1 1.8 0.1
v -2.1 1.8 0
v -2.1 1.8 -0.1
v -2.1 1.8 -0.2
v -2.1 3.3 0.2
v -2.1 3.3 0.1
v -2.1 3.3 0
v -2.1 3.3 -0.1
v -2.1 3.5 0.3
v -2.1 3.5 0.2
v -2.1 3.5 -0.1
v -2.1 3.5 -0.2
v -2.1 3.6 0.3
v -2.1 3.6 0.2
v -2.1 3.6 -0.1
v -2.1 3.6 -0.2
v -2.1 3.7 0.1
v -2.1 3.7 0
v -2.1 3.8 0.1
v -2.1 3.8 0
v -2.8 2.9 0.1
v -2.8 2.9 0
v -2.8 3 0.1
v -2.8 3 0
v -2.8 4 0.1
v -2.8 4 0
v -2.8 4.1 0.1
v -2.8 4.1 0
v -2.7 3 0.1
v -2.7 3 0
v -2.7 3.1 0.1
v -2.7 3.1 0
v -2.7 3.9 0.1
v -2.7 3.9 0
v -2.7 4 0.1
v -2.7 4 0
v -2.6 3.1 0.1
v -2.6 3.1 0
v -2.6 3.2 0.1
v -2.6 3.2 0
v -2.6 3.8 0.1
v -2.6 3.8 0
v -2.6 3.9 0.1
v -2.6 3.9 0
v -2.3 3.2 0.1
v -2.3 3.2 0
v -2.3 3.4 0.1
v -2.3 3.4 0
v -2.3 3.6 0.1
v -2.3 3.6 0
v -2.3 3.8 0.1
v -2.3 3.8 0
v -2 1.7 0.3
v -2 1.7 0.2
v -2 1.7 -0.1
v -2 1.7 -0.2
v -2 1.8 0.3
v -2 1.8 0.2
v -2 1.8 0.1
v -2 1.8 0
v -2 1.8 -0.1
v -2 1.8 -0.2
v -2 3.3 0.2
v -2 3.3 0.1
v -2 3.3 0
v -2 3.3 -0.1
v -2 3.5 0.3
v -2 3.5 0.2
v -2 3.5 -0.1
v -2 3.5 -0.2
v -2 3.6 0.3
v -2 3.6 0.2
v -2 3.6 -0.1
v -2 3.6 -0.2
v -2 3.7 0.1
v -2 3.7 0
v -2 3.8 0.1
v -2 3.8 0
v -1.9 1.6 0.2
v -1.9 1.6 -0.1
v -1.9 1.7 0.1
v -1.9 1.7 0
v -1.9 1.8 0.2
v -1.9 1.8 0.1
v -1.9 1.8 0
v -1.9 1.8 -0.1
v -1.9 3.3 0.2
v -1.9 3.3 0.1
v -1.9 3.3 0
v -1.9 3.3 -0.1
v -1.9 3.4 0.1
v -1.9 3.4 0
v -1.9 3.6 0.1
v -1.9 3.6 0
v -1.9 3.7 0.2
v -1.9 3.7 -0.1
v -1.8 1.7 0.1
v -1.8 1.7 0
v -1.8 1.8 0.1
v -1.8 1.8 0
v -1.8 3.4 0.1
v -1.8 3.4 0
v -1.8 3.5 0.1
v -1.8 3.5 0
v -1.5 3.5 0.1
v -1.5 3.5 0
v -1.5 3.6 0.1
v -1.5 3.6 0
v -2.1 1.7 0.3
v -2.1 1.8 0.3
v -2.1 3.5 0.3
v -2.1 3.6 0.3
v -2 1.7 0.3
v -2 1.8 0.3
v -2 3.5 0.3
v -2 3.6 0.3
v -2.2 1.6 0.2
v -2.2 1.8 0.2
v -2.2 3.3 0.2
v -2.2 3.7 0.2
v -2.1 1.7 0.2
v -2.1 1.8 0.2
v -2.1 3.3 0.2
v -2.1 3.5 0.2
v -2.1 3.6 0.2
v -2 1.7 0.2
v -2 1.8 0.2
v -2 3.3 0.2
v -2 3.5 0.2
v -2 3.6 0.2
v -1.9 1.6 0.2
v -1.9 1.8 0.2
v -1.9 3.3 0.2
v -1.9 3.7 0.2
v -3 3 0.1
v -3 4 0.1
v -2.9 2.9 0.1
v -2.9 3 0.1
v -2.9 4 0.1
v -2.9 4.1 0.1
v -2.8 2.9 0.1
v -2.8 3 0.1
v -2.8 3.2 0.1
v -2.8 3.8 0.1
v -2.8 4 0.1
v -2.8 4.1 0.1
v -2.7 3 0.1
v -2.7 3.1 0.1
v -2.7 3.2 0.1
v -2.7 3.3 0.1
v -2.7 3.7 0.1
v -2.7 3.8 0.1
v -2.7 3.9 0.1
v -2.7 4 0.1
v -2.6 3.1 0.1
v -2.6 3.2 0.1
v -2.6 3.3 0.1
v -2.6 3.7 0.1
v -2.6 3.8 0.1
v -2.6 3.9 0.1
v -2.3 1.7 0.1
v -2.3 1.8 0.1
v -2.3 3.2 0.1
v -2.3 3.4 0.1
v -2.3 3.6 0.1
v -2.3 3.8 0.1
v -2.2 1.7 0.1
v -2.2 1.8 0.1
v -2.2 3.3 0.1
v -2.2 3.4 0.1
v -2.2 3.6 0.1
v -2.1 1.8 0.1
v -2.1 3.3 0.1
v -2.1 3.7 0.1
v -2.1 3.8 0.1
v -2 1.8 0.1
v -2 3.3 0.1
v -2 3.7 0.1
v -2 3.8 0.1
v -1.9 1.7 0.1
v -1.9 1.8 0.1
v -1.9 3.3 0.1
v -1.9 3.4 0.1
v -1.9 3.6 0.1
v -1.8 1.7 0.1
v -1.8 1.8 0.1
v -1.8 3.4 0.1
v -1.8 3.5 0.1
v -1.5 3.5 0.1
v -1.5 3.6 0.1
v -3 3 0
v -3 4 0
v -2.9 2.9 0
v -2.9 3 0
v -2.9 4 0
v -2.9 4.1 0
v -2.8 2.9 0
v -2.8 3 0
v -2.8 3.2 0
v -2.8 3.8 0
v -2.8 4 0
v -2.8 4.1 0
v -2.7 3 0
v -2.7 3.1 0
v -2.7 3.2 0
v -2.7 3.3 0
v -2.7 3.7 0
v -2.7 3.8 0
v -2.7 3.9 0
v -2.7 4 0
v -2.6 3.1 0
v -2.6 3.2 0
v -2.6 3.3 0
v -2.6 3.7 0
v -2.6 3.8 0
v -2.6 3.9 0
v -2.3 1.7 0
v -2.3 1.8 0
v -2.3 3.2 0
v -2.3 3.4 0
v -2.3 3.6 0
v -2.3 3.8 0
v -2.2 1.7 0
v -2.2 1.8 0
v -2.2 3.3 0
v -2.2 3.4 0
v -2.2 3.6 0
v -2.1 1.8 0
v -2.1 3.3 0
v -2.1 3.7 0
v -2.1 3.8 0
v -2 1.8 0
v -2 3.3 0
v -2 3.7 0
v -2 3.8 0
v -1.9 1.7 0
v -1.9 1.8 0
v -1.9 3.3 0
v -1.9 3.4 0
v -1.9 3.6 0
v -1.8 1.7 0
v -1.8 1.8 0
v -1.8 3.4 0
v -1.8 3.5 0
v -1.5 3.5 0
v -1.5 3.6 0
v -2.2 1.6 -0.1
v -2.2 1.8 -0.1
v -2.2 3.3 -0.1
v -2.2 3.7 -0.1
v -2.1 1.7 -0.1
v -2.1 1.8 -0.1
v -2.1 3.3 -0.1
v -2.1 3.5 -0.1
v -2.1 3.6 -0.1
v -2 1.7 -0.1
v -2 1.8 -0.1
v -2 3.3 -0.1
v -2 3.5 -0.1
v -2 3.6 -0.1
v -1.9 1.6 -0.1
v -1.9 1.8 -0.1
v -1.9 3.3 -0.1
v -1.9 3.7 -0.1
v -2.1 1.7 -0.2
v -2.1 1.8 -0.2
v -2.1 3.5 -0.2
v -2.1 3.6 -0.2
v -2 1.7 -0.2
v -2 1.8 -0.2
v -2 3.5 -0.2
v -2 3.6 -0.2
v -2.2 1.6 0.2
v -1.9 1.6 0.2
v -2.2 1.6 -0.1
v -1.9 1.6 -0.1
v -2.1 1.7 0.3
v -2 1.7 0.3
v -2.1 1.7 0.2
v -2 1.7 0.2
v -2.3 1.7 0.1
v -2.2 1.7 0.1
v -1.9 1.7 0.1
v -1.8 1.7 0.1
v -2.3 1.7 0
v -2.2 1.7 0
v -1.9 1.7 0
v -1.8 1.7 0
v -2.1 1.7 -0.1
v -2 1.7 -0.1
v -2.1 1.7 -0.2
v -2 1.7 -0.2
v -2.9 2.9 0.1
v -2.8 2.9 0.1
v -2.9 2.9 0
v -2.8 2.9 0
v -3 3 0.1
v -2.9 3 0.1
v -2.8 3 0.1
v -2.7 3 0.1
v -3 3 0
v -2.9 3 0
v -2.8 3 0
v -2.7 3 0
v -2.7 3.1 0.1
v -2.6 3.1 0.1
v -2.7 3.1 0
v -2.6 3.1 0
v -2.6 3.2 0.1
v -2.3 3.2 0.1
v -2.6 3.2 0
v -2.3 3.2 0
v -2.2 3.3 0.2
v -2.1 3.3 0.2
v -2 3.3 0.2
v -1.9 3.3 0.2
v -2.2 3.3 0.1
v -2.1 3.3 0.1
v -2 3.3 0.1
v -1.9 3.3 0.1
v -2.2 3.3 0
v -2.1 3.3 0
v -2 3.3 0
v -1.9 3.3 0
v -2.2 3.3 -0.1
v -2.1 3.3 -0.1
v -2 3.3 -0.1
v -1.9 3.3 -0.1
v -2.3 3.4 0.1
v -2.2 3.4 0.1
v -1.9 3.4 0.1
v -1.8 3.4 0.1
v -2.3 3.4 0
v -2.2 3.4 0
v -1.9 3.4 0
v -1.8 3.4 0
v -2.1 3.5 0.3
v -2 3.5 0.3
v -2.1 3.5 0.2
v -2 3.5 0.2
v -1.8 3.5 0.1
v -1.5 3.5 0.1
v -1.8 3.5 0
v -1.5 3.5 0
v -2.1 3.5 -0.1
v -2 3.5 -0.1
v -2.1 3.5 -0.2
v -2 3.5 -0.2
v -2.1 1.8 0.3
v -2 1.8 0.3
v -2.2 1.8 0.2
v -2.1 1.8 0.2
v -2 1.8 0.2
v -1.9 1.8 0.2
v -2.3 1.8 0.1
v -2.2 1.8 0.1
v -2.1 1.8 0.1
v -2 1.8 0.1
v -1.9 1.8 0.1
v -1.8 1.8 0.1
v -2.3 1.8 0
v -2.2 1.8 0
v -2.1 1.8 0
v -2 1.8 0
v -1.9 1.8 0
v -1.8 1.8 0
v -2.2 1.8 -0.1
v -2.1 1.8 -0.1
v -2 1.8 -0.1
v -1.9 1.8 -0.1
v -2.1 1.8 -0.2
v -2 1.8 -0.2
v -2.1 3.6 0.3
v -2 3.6 0.3
v -2.1 3.6 0.2
v -2 3.6 0.2
v -2.3 3.6 0.1
v -2.2 3.6 0.1
v -1.9 3.6 0.1
v -1.5 3.6 0.1
v -2.3 3.6 0
v -2.2 3.6 0
v -1.9 3.6 0
v -1.5 3.6 0
v -2.1 3.6 -0.1
v -2 3.6 -0.1
v -2.1 3.6 -0.2
v -2 3.6 -0.2
v -2.2 3.7 0.2
v -1.9 3.7 0.2
v -2.1 3.7 0.1
v -2 3.7 0.1
v -2.1 3.7 0
v -2 3.7 0
v -2.2 3.7 -0.1
v -1.9 3.7 -0.1
v -2.6 3.8 0.1
v -2.3 3.8 0.1
v -2.1 3.8 0.1
v -2 3.8 0.1
v -2.6 3.8 0
v -2.3 3.8 0
v -2.1 3.8 0
v -2 3.8 0
v -2.7 3.9 0.1
v -2.6 3.9 0.1
v -2.7 3.9 0
v -2.6 3.9 0
v -3 4 0.1
v -2.9 4 0.1
v -2.8 4 0.1
v -2.7 4 0.1
v -3 4 0
v -2.9 4 0
v -2.8 4 0
v -2.7 4 0
v -2.9 4.1 0.1
v -2.8 4.1 0.1
v -2.9 4.1 0
v -2.8 4.1 0

# faces
f 3/2/1 2/2/1 1/2/1
f 4/2/1 2/2/1 3/2/1
f 7/2/1 6/2/1 5/2/1
f 8/2/1 6/2/1 7/2/1
f 11/2/1 10/2/1 9/2/1
f 12/2/1 10/2/1 11/2/1
f 15/5/1 14/5/1 13/5/1
f 16/5/1 14/5/1 15/5/1
f 19/3/1 18/3/1 17/3/1
f 20/3/1 18/3/1 19/3/1
f 21/3/1 19/3/1 17/3/1
f 22/3/1 19/3/1 21/3/1
f 23/3/1 18/3/1 20/3/1
f 24/3/1 18/3/1 23/3/1
f 26/4/1 23/4/1 22/4/1
f 27/4/1 23/4/1 26/4/1
f 29/3/1 26/3/1 25/3/1
f 29/3/1 28/3/1 27/3/1
f 29/3/1 27/3/1 26/3/1
f 30/3/1 28/3/1 29/3/1
f 31/3/1 29/3/1 25/3/1
f 32/3/1 28/3/1 30/3/1
f 33/3/1 31/3/1 25/3/1
f 33/3/1 32/3/1 31/3/1
f 34/3/1 28/3/1 32/3/1
f 34/3/1 32/3/1 33/3/1
f 39/5/1 36/5/1 35/5/1
f 40/5/1 36/5/1 39/5/1
f 43/5/1 38/5/1 37/5/1
f 44/5/1 38/5/1 43/5/1
f 45/4/1 41/4/1 40/4/1
f 46/4/1 41/4/1 45/4/1
f 47/4/1 43/4/1 42/4/1
f 48/4/1 43/4/1 47/4/1
f 53/5/1 50/5/1 49/5/1
f 54/5/1 50/5/1 53/5/1
f 55/5/1 52/5/1 51/5/1
f 56/5/1 52/5/1 55/5/1
f 59/5/1 58/5/1 57/5/1
f 60/5/1 58/5/1 59/5/1
f 61/2/2 62/2/2 63/2/2
f 63/2/2 62/2/2 64/2/2
f 65/2/2 66/2/2 67/2/2
f 67/2/2 66/2/2 68/2/2
f 69/3/2 70/3/2 71/3/2
f 71/3/2 70/3/2 72/3/2
f 73/3/2 74/3/2 75/3/2
f 75/3/2 74/3/2 76/3/2
f 77/3/2 78/3/2 79/3/2
f 79/3/2 78/3/2 80/3/2
f 81/3/2 82/3/2 83/3/2
f 83/3/2 82/3/2 84/3/2
f 85/3/2 86/3/2 87/3/2
f 87/3/2 86/3/2 88/3/2
f 89/3/2 90/3/2 91/3/2
f 91/3/2 90/3/2 92/3/2
f 93/5/2 94/5/2 97/5/2
f 97/5/2 94/5/2 98/5/2
f 95/5/2 96/5/2 101/5/2
f 101/5/2 96/5/2 102/5/2
f 98/4/2 99/4/2 103/4/2
f 103/4/2 99/4/2 104/4/2
f 100/4/2 101/4/2 105/4/2
f 105/4/2 101/4/2 106/4/2
f 107/5/2 108/5/2 111/5/2
f 111/5/2 108/5/2 112/5/2
f 109/5/2 110/5/2 113/5/2
f 113/5/2 110/5/2 114/5/2
f 115/5/2 116/5/2 117/5/2
f 117/5/2 116/5/2 118/5/2
f 119/3/2 120/3/2 121/3/2
f 121/3/2 120/3/2 122/3/2
f 119/3/2 121/3/2 123/3/2
f 123/3/2 121/3/2 124/3/2
f 122/3/2 120/3/2 125/3/2
f 125/3/2 120/3/2 126/3/2
f 124/4/2 125/4/2 128/4/2
f 128/4/2 125/4/2 129/4/2
f 127/3/2 128/3/2 131/3/2
f 129/3/2 130/3/2 131/3/2
f 128/3/2 129/3/2 131/3/2
f 131/3/2 130/3/2 132/3/2
f 127/3/2 131/3/2 133/3/2
f 132/3/2 130/3/2 134/3/2
f 127/3/2 133/3/2 135/3/2
f 133/3/2 134/3/2 135/3/2
f 134/3/2 130/3/2 136/3/2
f 135/3/2 134/3/2 136/3/2
f 137/5/2 138/5/2 139/5/2
f 139/5/2 138/5/2 140/5/2
f 141/5/2 142/5/2 143/5/2
f 143/5/2 142/5/2 144/5/2
f 145/5/2 146/5/2 147/5/2
f 147/5/2 146/5/2 148/5/2
f 153/5/3 150/5/3 149/5/3
f 154/5/3 150/5/3 153/5/3
f 155/5/3 152/5/3 151/5/3
f 156/5/3 152/5/3 155/5/3
f 161/3/3 158/3/3 157/3/3
f 162/3/3 158/3/3 161/3/3
f 163/3/3 160/3/3 159/3/3
f 164/3/3 160/3/3 163/3/3
f 165/3/3 160/3/3 164/3/3
f 166/3/3 161/3/3 157/3/3
f 167/4/3 163/4/3 162/4/3
f 168/3/3 164/3/3 163/3/3
f 168/4/3 163/4/3 167/4/3
f 169/3/3 164/3/3 168/3/3
f 170/3/3 160/3/3 165/3/3
f 171/3/3 167/3/3 166/3/3
f 171/3/3 166/3/3 157/3/3
f 172/3/3 167/3/3 171/3/3
f 173/3/3 169/3/3 168/3/3
f 173/3/3 170/3/3 169/3/3
f 174/3/3 160/3/3 170/3/3
f 174/3/3 170/3/3 173/3/3
f 178/2/3 176/2/3 175/2/3
f 179/2/3 176/2/3 178/2/3
f 181/2/3 178/2/3 177/2/3
f 181/2/3 180/2/3 179/2/3
f 181/2/3 179/2/3 178/2/3
f 182/2/3 180/2/3 181/2/3
f 183/2/3 180/2/3 182/2/3
f 184/2/3 180/2/3 183/2/3
f 185/2/3 180/2/3 184/2/3
f 186/2/3 180/2/3 185/2/3
f 187/3/3 183/3/3 182/3/3
f 188/3/3 183/3/3 187/3/3
f 189/2/3 184/2/3 183/2/3
f 189/3/3 183/3/3 188/3/3
f 190/2/3 184/2/3 189/2/3
f 191/2/3 184/2/3 190/2/3
f 192/3/3 185/3/3 184/3/3
f 192/2/3 184/2/3 191/2/3
f 193/3/3 185/3/3 192/3/3
f 194/3/3 185/3/3 193/3/3
f 195/3/3 189/3/3 188/3/3
f 195/3/3 190/3/3 189/3/3
f 196/3/3 190/3/3 195/3/3
f 197/2/3 191/2/3 190/2/3
f 197/3/3 190/3/3 196/3/3
f 198/3/3 193/3/3 192/3/3
f 198/2/3 191/2/3 197/2/3
f 198/3/3 192/3/3 191/3/3
f 199/3/3 193/3/3 198/3/3
f 200/3/3 193/3/3 199/3/3
f 203/3/3 197/3/3 196/3/3
f 203/3/3 198/3/3 197/3/3
f 203/3/3 199/3/3 198/3/3
f 204/3/3 199/3/3 203/3/3
f 205/3/3 199/3/3 204/3/3
f 206/3/3 199/3/3 205/3/3
f 207/5/3 202/5/3 201/5/3
f 208/5/3 202/5/3 207/5/3
f 210/3/3 205/3/3 204/3/3
f 211/3/3 205/3/3 210/3/3
f 212/4/3 209/4/3 208/4/3
f 213/4/3 209/4/3 212/4/3
f 218/5/3 215/5/3 214/5/3
f 219/5/3 215/5/3 218/5/3
f 221/4/3 217/4/3 216/4/3
f 222/4/3 217/4/3 221/4/3
f 225/5/3 221/5/3 220/5/3
f 226/5/3 221/5/3 225/5/3
f 227/5/3 224/5/3 223/5/3
f 228/5/3 224/5/3 227/5/3
f 229/5/3 224/5/3 228/5/3
f 230/5/3 224/5/3 229/5/3
f 231/2/4 232/2/4 234/2/4
f 234/2/4 232/2/4 235/2/4
f 233/2/4 234/2/4 237/2/4
f 235/2/4 236/2/4 237/2/4
f 234/2/4 235/2/4 237/2/4
f 237/2/4 236/2/4 238/2/4
f 238/2/4 236/2/4 239/2/4
f 239/2/4 236/2/4 240/2/4
f 240/2/4 236/2/4 241/2/4
f 241/2/4 236/2/4 242/2/4
f 238/3/4 239/3/4 243/3/4
f 243/3/4 239/3/4 244/3/4
f 239/2/4 240/2/4 245/2/4
f 244/3/4 239/3/4 245/3/4
f 245/2/4 240/2/4 246/2/4
f 246/2/4 240/2/4 247/2/4
f 240/3/4 241/3/4 248/3/4
f 247/2/4 240/2/4 248/2/4
f 248/3/4 241/3/4 249/3/4
f 249/3/4 241/3/4 250/3/4
f 244/3/4 245/3/4 251/3/4
f 245/3/4 246/3/4 251/3/4
f 251/3/4 246/3/4 252/3/4
f 246/2/4 247/2/4 253/2/4
f 252/3/4 246/3/4 253/3/4
f 248/3/4 249/3/4 254/3/4
f 253/2/4 247/2/4 254/2/4
f 247/3/4 248/3/4 254/3/4
f 254/3/4 249/3/4 255/3/4
f 255/3/4 249/3/4 256/3/4
f 252/3/4 253/3/4 259/3/4
f 253/3/4 254/3/4 259/3/4
f 254/3/4 255/3/4 259/3/4
f 259/3/4 255/3/4 260/3/4
f 260/3/4 255/3/4 261/3/4
f 261/3/4 255/3/4 262/3/4
f 257/5/4 258/5/4 263/5/4
f 263/5/4 258/5/4 264/5/4
f 260/3/4 261/3/4 266/3/4
f 266/3/4 261/3/4 267/3/4
f 264/4/4 265/4/4 268/4/4
f 268/4/4 265/4/4 269/4/4
f 270/5/4 271/5/4 274/5/4
f 274/5/4 271/5/4 275/5/4
f 272/4/4 273/4/4 277/4/4
f 277/4/4 273/4/4 278/4/4
f 276/5/4 277/5/4 281/5/4
f 281/5/4 277/5/4 282/5/4
f 279/5/4 280/5/4 283/5/4
f 283/5/4 280/5/4 284/5/4
f 284/5/4 280/5/4 285/5/4
f 285/5/4 280/5/4 286/5/4
f 287/3/4 288/3/4 291/3/4
f 291/3/4 288/3/4 292/3/4
f 289/3/4 290/3/4 293/3/4
f 293/3/4 290/3/4 294/3/4
f 294/3/4 290/3/4 295/3/4
f 287/3/4 291/3/4 296/3/4
f 292/4/4 293/4/4 297/4/4
f 293/3/4 294/3/4 298/3/4
f 297/4/4 293/4/4 298/4/4
f 298/3/4 294/3/4 299/3/4
f 295/3/4 290/3/4 300/3/4
f 296/3/4 297/3/4 301/3/4
f 287/3/4 296/3/4 301/3/4
f 301/3/4 297/3/4 302/3/4
f 298/3/4 299/3/4 303/3/4
f 299/3/4 300/3/4 303/3/4
f 300/3/4 290/3/4 304/3/4
f 303/3/4 300/3/4 304/3/4
f 305/5/4 306/5/4 309/5/4
f 309/5/4 306/5/4 310/5/4
f 307/5/4 308/5/4 311/5/4
f 311/5/4 308/5/4 312/5/4
f 315/3/5 314/3/5 313/3/5
f 316/3/5 314/3/5 315/3/5
f 319/5/5 318/5/5 317/5/5
f 320/5/5 318/5/5 319/5/5
f 325/5/5 322/5/5 321/5/5
f 326/5/5 322/5/5 325/5/5
f 327/5/5 324/5/5 323/5/5
f 328/5/5 324/5/5 327/5/5
f 331/5/5 330/5/5 329/5/5
f 332/5/5 330/5/5 331/5/5
f 335/2/5 334/2/5 333/2/5
f 336/2/5 334/2/5 335/2/5
f 341/2/5 338/2/5 337/2/5
f 342/2/5 338/2/5 341/2/5
f 343/3/5 340/3/5 339/3/5
f 344/3/5 340/3/5 343/3/5
f 347/3/5 346/3/5 345/3/5
f 348/3/5 346/3/5 347/3/5
f 351/3/5 350/3/5 349/3/5
f 352/3/5 350/3/5 351/3/5
f 357/3/5 354/3/5 353/3/5
f 358/3/5 354/3/5 357/3/5
f 359/3/5 356/3/5 355/3/5
f 360/3/5 356/3/5 359/3/5
f 365/3/5 362/3/5 361/3/5
f 366/3/5 362/3/5 365/3/5
f 367/3/5 364/3/5 363/3/5
f 368/3/5 364/3/5 367/3/5
f 373/3/5 370/3/5 369/3/5
f 374/3/5 370/3/5 373/3/5
f 375/5/5 372/5/5 371/5/5
f 376/5/5 372/5/5 375/5/5
f 379/5/5 378/5/5 377/5/5
f 380/5/5 378/5/5 379/5/5
f 383/5/5 382/5/5 381/5/5
f 384/5/5 382/5/5 383/5/5
f 387/5/5 386/5/5 385/5/5
f 388/5/5 386/5/5 387/5/5
f 389/5/6 390/5/6 392/5/6
f 392/5/6 390/5/6 393/5/6
f 391/3/6 392/3/6 396/3/6
f 396/3/6 392/3/6 397/3/6
f 393/3/6 394/3/6 398/3/6
f 398/3/6 394/3/6 399/3/6
f 395/5/6 396/5/6 401/5/6
f 401/5/6 396/5/6 402/5/6
f 399/5/6 400/5/6 405/5/6
f 405/5/6 400/5/6 406/5/6
f 402/3/6 403/3/6 407/3/6
f 407/3/6 403/3/6 408/3/6
f 404/3/6 405/3/6 409/3/6
f 409/3/6 405/3/6 410/3/6
f 408/5/6 409/5/6 411/5/6
f 411/5/6 409/5/6 412/5/6
f 413/5/6 414/5/6 415/5/6
f 415/5/6 414/5/6 416/5/6
f 417/3/6 418/3/6 421/3/6
f 421/3/6 418/3/6 422/3/6
f 419/5/6 420/5/6 423/5/6
f 423/5/6 420/5/6 424/5/6
f 425/5/6 426/5/6 427/5/6
f 427/5/6 426/5/6 428/5/6
f 429/3/6 430/3/6 431/3/6
f 431/3/6 430/3/6 432/3/6
f 429/3/6 431/3/6 433/3/6
f 432/3/6 430/3/6 434/3/6
f 429/3/6 433/3/6 435/3/6
f 433/3/6 434/3/6 435/3/6
f 434/3/6 430/3/6 436/3/6
f 435/3/6 434/3/6 436/3/6
f 437/3/6 438/3/6 441/3/6
f 441/3/6 438/3/6 442/3/6
f 439/5/6 440/5/6 443/5/6
f 443/5/6 440/5/6 444/5/6
f 445/3/6 446/3/6 447/3/6
f 447/3/6 446/3/6 448/3/6
f 449/2/6 450/2/6 453/2/6
f 453/2/6 450/2/6 454/2/6
f 451/3/6 452/3/6 455/3/6
f 455/3/6 452/3/6 456/3/6
f 457/2/6 458/2/6 459/2/6
f 459/2/6 458/2/6 460/2/6
