# MagicaVoxel @ Ephtracy

# group
o Sword Level One

# material
mtllib Orc_Warrior_Level_One-0-Sword Level One.mtl
usemtl palette

# normals
vn -1 0 0
vn 1 0 0
vn 0 0 1
vn 0 0 -1
vn 0 -1 0
vn 0 1 0

# texcoords
vt 0.912109 0.5
vt 0.939453 0.5
vt 0.955078 0.5

# verts
v -2.5 2.5 0.2
v -2.5 2.5 -0.1
v -2.5 2.7 0.2
v -2.5 2.7 -0.1
v -2.3 2.6 0.1
v -2.3 2.6 0
v -2.3 2.9 0.1
v -2.3 2.9 0
v -2.3 3.4 0.1
v -2.3 3.4 0
v -2.3 3.9 0.1
v -2.3 3.9 0
v -2.2 1.6 0.2
v -2.2 1.6 -0.1
v -2.2 1.7 0.2
v -2.2 1.7 0.1
v -2.2 1.7 0
v -2.2 1.7 -0.1
v -2.2 2.5 0.1
v -2.2 2.5 0
v -2.2 2.9 0.1
v -2.2 2.9 0
v -2.2 3.4 0.1
v -2.2 3.4 0
v -2.2 3.9 0.1
v -2.2 3.9 0
v -2.2 4.1 0.1
v -2.2 4.1 0
v -2.1 1.7 0.2
v -2.1 1.7 0.1
v -2.1 1.7 0
v -2.1 1.7 -0.1
v -2.1 2.5 0.2
v -2.1 2.5 0.1
v -2.1 2.5 0
v -2.1 2.5 -0.1
v -2.1 4.1 0.1
v -2.1 4.1 0
v -2.1 4.2 0.1
v -2.1 4.2 0
v -1.7 2.6 0.2
v -1.7 2.6 -0.1
v -1.7 2.7 0.2
v -1.7 2.7 -0.1
v -2.4 2.6 0.2
v -2.4 2.6 -0.1
v -2.4 2.7 0.2
v -2.4 2.7 -0.1
v -2 1.7 0.2
v -2 1.7 0.1
v -2 1.7 0
v -2 1.7 -0.1
v -2 2.5 0.2
v -2 2.5 0.1
v -2 2.5 0
v -2 2.5 -0.1
v -2 4.1 0.1
v -2 4.1 0
v -2 4.2 0.1
v -2 4.2 0
v -1.9 1.6 0.2
v -1.9 1.6 -0.1
v -1.9 1.7 0.2
v -1.9 1.7 0.1
v -1.9 1.7 0
v -1.9 1.7 -0.1
v -1.9 2.5 0.1
v -1.9 2.5 0
v -1.9 2.9 0.1
v -1.9 2.9 0
v -1.9 3.4 0.1
v -1.9 3.4 0
v -1.9 3.9 0.1
v -1.9 3.9 0
v -1.9 4.1 0.1
v -1.9 4.1 0
v -1.8 2.6 0.1
v -1.8 2.6 0
v -1.8 2.9 0.1
v -1.8 2.9 0
v -1.8 3.4 0.1
v -1.8 3.4 0
v -1.8 3.9 0.1
v -1.8 3.9 0
v -1.6 2.5 0.2
v -1.6 2.5 -0.1
v -1.6 2.7 0.2
v -1.6 2.7 -0.1
v -2.5 2.5 0.2
v -2.5 2.7 0.2
v -2.4 2.6 0.2
v -2.4 2.7 0.2
v -2.2 1.6 0.2
v -2.2 1.7 0.2
v -2.1 1.7 0.2
v -2.1 2.5 0.2
v -2 1.7 0.2
v -2 2.5 0.2
v -1.9 1.6 0.2
v -1.9 1.7 0.2
v -1.7 2.6 0.2
v -1.7 2.7 0.2
v -1.6 2.5 0.2
v -1.6 2.7 0.2
v -2.3 2.6 0.1
v -2.3 2.9 0.1
v -2.3 3.4 0.1
v -2.3 3.9 0.1
v -2.2 1.7 0.1
v -2.2 2.5 0.1
v -2.2 2.6 0.1
v -2.2 2.7 0.1
v -2.2 2.9 0.1
v -2.2 3.4 0.1
v -2.2 3.9 0.1
v -2.2 4.1 0.1
v -2.1 1.7 0.1
v -2.1 2.5 0.1
v -2.1 2.7 0.1
v -2.1 4.1 0.1
v -2.1 4.2 0.1
v -2 1.7 0.1
v -2 2.5 0.1
v -2 2.7 0.1
v -2 4.1 0.1
v -2 4.2 0.1
v -1.9 1.7 0.1
v -1.9 2.5 0.1
v -1.9 2.6 0.1
v -1.9 2.7 0.1
v -1.9 2.9 0.1
v -1.9 3.4 0.1
v -1.9 3.9 0.1
v -1.9 4.1 0.1
v -1.8 2.6 0.1
v -1.8 2.9 0.1
v -1.8 3.4 0.1
v -1.8 3.9 0.1
v -2.3 2.6 0
v -2.3 2.9 0
v -2.3 3.4 0
v -2.3 3.9 0
v -2.2 1.7 0
v -2.2 2.5 0
v -2.2 2.6 0
v -2.2 2.7 0
v -2.2 2.9 0
v -2.2 3.4 0
v -2.2 3.9 0
v -2.2 4.1 0
v -2.1 1.7 0
v -2.1 2.5 0
v -2.1 2.7 0
v -2.1 4.1 0
v -2.1 4.2 0
v -2 1.7 0
v -2 2.5 0
v -2 2.7 0
v -2 4.1 0
v -2 4.2 0
v -1.9 1.7 0
v -1.9 2.5 0
v -1.9 2.6 0
v -1.9 2.7 0
v -1.9 2.9 0
v -1.9 3.4 0
v -1.9 3.9 0
v -1.9 4.1 0
v -1.8 2.6 0
v -1.8 2.9 0
v -1.8 3.4 0
v -1.8 3.9 0
v -2.5 2.5 -0.1
v -2.5 2.7 -0.1
v -2.4 2.6 -0.1
v -2.4 2.7 -0.1
v -2.2 1.6 -0.1
v -2.2 1.7 -0.1
v -2.1 1.7 -0.1
v -2.1 2.5 -0.1
v -2 1.7 -0.1
v -2 2.5 -0.1
v -1.9 1.6 -0.1
v -1.9 1.7 -0.1
v -1.7 2.6 -0.1
v -1.7 2.7 -0.1
v -1.6 2.5 -0.1
v -1.6 2.7 -0.1
v -2.2 1.6 0.2
v -1.9 1.6 0.2
v -2.2 1.6 -0.1
v -1.9 1.6 -0.1
v -2.5 2.5 0.2
v -2.1 2.5 0.2
v -2 2.5 0.2
v -1.6 2.5 0.2
v -2.2 2.5 0.1
v -2.1 2.5 0.1
v -2 2.5 0.1
v -1.9 2.5 0.1
v -2.2 2.5 0
v -2.1 2.5 0
v -2 2.5 0
v -1.9 2.5 0
v -2.5 2.5 -0.1
v -2.1 2.5 -0.1
v -2 2.5 -0.1
v -1.6 2.5 -0.1
v -2.3 3.4 0.1
v -2.2 3.4 0.1
v -1.9 3.4 0.1
v -1.8 3.4 0.1
v -2.3 3.4 0
v -2.2 3.4 0
v -1.9 3.4 0
v -1.8 3.4 0
v -2.2 1.7 0.2
v -2.1 1.7 0.2
v -2 1.7 0.2
v -1.9 1.7 0.2
v -2.2 1.7 0.1
v -2.1 1.7 0.1
v -2 1.7 0.1
v -1.9 1.7 0.1
v -2.2 1.7 0
v -2.1 1.7 0
v -2 1.7 0
v -1.9 1.7 0
v -2.2 1.7 -0.1
v -2.1 1.7 -0.1
v -2 1.7 -0.1
v -1.9 1.7 -0.1
v -2.4 2.6 0.2
v -1.7 2.6 0.2
v -2.3 2.6 0.1
v -2.2 2.6 0.1
v -1.9 2.6 0.1
v -1.8 2.6 0.1
v -2.3 2.6 0
v -2.2 2.6 0
v -1.9 2.6 0
v -1.8 2.6 0
v -2.4 2.6 -0.1
v -1.7 2.6 -0.1
v -2.5 2.7 0.2
v -2.4 2.7 0.2
v -1.7 2.7 0.2
v -1.6 2.7 0.2
v -2.5 2.7 -0.1
v -2.4 2.7 -0.1
v -1.7 2.7 -0.1
v -1.6 2.7 -0.1
v -2.3 2.9 0.1
v -2.2 2.9 0.1
v -1.9 2.9 0.1
v -1.8 2.9 0.1
v -2.3 2.9 0
v -2.2 2.9 0
v -1.9 2.9 0
v -1.8 2.9 0
v -2.3 3.9 0.1
v -2.2 3.9 0.1
v -1.9 3.9 0.1
v -1.8 3.9 0.1
v -2.3 3.9 0
v -2.2 3.9 0
v -1.9 3.9 0
v -1.8 3.9 0
v -2.2 4.1 0.1
v -2.1 4.1 0.1
v -2 4.1 0.1
v -1.9 4.1 0.1
v -2.2 4.1 0
v -2.1 4.1 0
v -2 4.1 0
v -1.9 4.1 0
v -2.1 4.2 0.1
v -2 4.2 0.1
v -2.1 4.2 0
v -2 4.2 0

# faces
f 3/2/1 2/2/1 1/2/1
f 4/2/1 2/2/1 3/2/1
f 7/1/1 6/1/1 5/1/1
f 8/1/1 6/1/1 7/1/1
f 11/1/1 10/1/1 9/1/1
f 12/1/1 10/1/1 11/1/1
f 15/1/1 14/1/1 13/1/1
f 16/1/1 14/1/1 15/1/1
f 17/1/1 14/1/1 16/1/1
f 18/1/1 14/1/1 17/1/1
f 19/3/1 17/3/1 16/3/1
f 20/3/1 17/3/1 19/3/1
f 23/1/1 22/1/1 21/1/1
f 24/1/1 22/1/1 23/1/1
f 27/1/1 26/1/1 25/1/1
f 28/1/1 26/1/1 27/1/1
f 33/3/1 30/3/1 29/3/1
f 34/3/1 30/3/1 33/3/1
f 35/3/1 32/3/1 31/3/1
f 36/3/1 32/3/1 35/3/1
f 39/1/1 38/1/1 37/1/1
f 40/1/1 38/1/1 39/1/1
f 43/2/1 42/2/1 41/2/1
f 44/2/1 42/2/1 43/2/1
f 45/2/2 46/2/2 47/2/2
f 47/2/2 46/2/2 48/2/2
f 49/3/2 50/3/2 53/3/2
f 53/3/2 50/3/2 54/3/2
f 51/3/2 52/3/2 55/3/2
f 55/3/2 52/3/2 56/3/2
f 57/1/2 58/1/2 59/1/2
f 59/1/2 58/1/2 60/1/2
f 61/1/2 62/1/2 63/1/2
f 63/1/2 62/1/2 64/1/2
f 64/1/2 62/1/2 65/1/2
f 65/1/2 62/1/2 66/1/2
f 64/3/2 65/3/2 67/3/2
f 67/3/2 65/3/2 68/3/2
f 69/1/2 70/1/2 71/1/2
f 71/1/2 70/1/2 72/1/2
f 73/1/2 74/1/2 75/1/2
f 75/1/2 74/1/2 76/1/2
f 77/1/2 78/1/2 79/1/2
f 79/1/2 78/1/2 80/1/2
f 81/1/2 82/1/2 83/1/2
f 83/1/2 82/1/2 84/1/2
f 85/2/2 86/2/2 87/2/2
f 87/2/2 86/2/2 88/2/2
f 91/2/3 90/2/3 89/2/3
f 92/2/3 90/2/3 91/2/3
f 95/1/3 94/1/3 93/1/3
f 96/2/3 91/2/3 89/2/3
f 97/1/3 95/1/3 93/1/3
f 97/3/3 96/3/3 95/3/3
f 98/2/3 91/2/3 96/2/3
f 98/3/3 96/3/3 97/3/3
f 99/1/3 97/1/3 93/1/3
f 100/1/3 97/1/3 99/1/3
f 101/2/3 91/2/3 98/2/3
f 103/2/3 101/2/3 98/2/3
f 103/2/3 102/2/3 101/2/3
f 104/2/3 102/2/3 103/2/3
f 111/1/3 106/1/3 105/1/3
f 112/1/3 106/1/3 111/1/3
f 113/1/3 106/1/3 112/1/3
f 114/1/3 108/1/3 107/1/3
f 115/1/3 108/1/3 114/1/3
f 117/3/3 110/3/3 109/3/3
f 118/3/3 110/3/3 117/3/3
f 119/1/3 116/1/3 115/1/3
f 119/1/3 113/1/3 112/1/3
f 119/2/3 112/2/3 111/2/3
f 119/1/3 115/1/3 114/1/3
f 119/1/3 114/1/3 113/1/3
f 120/1/3 116/1/3 119/1/3
f 124/2/3 119/2/3 111/2/3
f 124/2/3 120/2/3 119/2/3
f 125/1/3 121/1/3 120/1/3
f 125/2/3 120/2/3 124/2/3
f 126/1/3 121/1/3 125/1/3
f 127/3/3 123/3/3 122/3/3
f 128/3/3 123/3/3 127/3/3
f 129/2/3 124/2/3 111/2/3
f 130/1/3 125/1/3 124/1/3
f 130/2/3 124/2/3 129/2/3
f 131/1/3 125/1/3 130/1/3
f 132/1/3 125/1/3 131/1/3
f 133/1/3 125/1/3 132/1/3
f 134/1/3 125/1/3 133/1/3
f 135/1/3 130/1/3 129/1/3
f 135/1/3 131/1/3 130/1/3
f 136/1/3 131/1/3 135/1/3
f 137/1/3 133/1/3 132/1/3
f 138/1/3 133/1/3 137/1/3
f 139/1/4 140/1/4 145/1/4
f 145/1/4 140/1/4 146/1/4
f 146/1/4 140/1/4 147/1/4
f 141/1/4 142/1/4 148/1/4
f 148/1/4 142/1/4 149/1/4
f 143/3/4 144/3/4 151/3/4
f 151/3/4 144/3/4 152/3/4
f 149/1/4 150/1/4 153/1/4
f 146/1/4 147/1/4 153/1/4
f 145/2/4 146/2/4 153/2/4
f 148/1/4 149/1/4 153/1/4
f 147/1/4 148/1/4 153/1/4
f 153/1/4 150/1/4 154/1/4
f 145/2/4 153/2/4 158/2/4
f 153/2/4 154/2/4 158/2/4
f 154/1/4 155/1/4 159/1/4
f 158/2/4 154/2/4 159/2/4
f 159/1/4 155/1/4 160/1/4
f 156/3/4 157/3/4 161/3/4
f 161/3/4 157/3/4 162/3/4
f 145/2/4 158/2/4 163/2/4
f 158/1/4 159/1/4 164/1/4
f 163/2/4 158/2/4 164/2/4
f 164/1/4 159/1/4 165/1/4
f 165/1/4 159/1/4 166/1/4
f 166/1/4 159/1/4 167/1/4
f 167/1/4 159/1/4 168/1/4
f 163/1/4 164/1/4 169/1/4
f 164/1/4 165/1/4 169/1/4
f 169/1/4 165/1/4 170/1/4
f 166/1/4 167/1/4 171/1/4
f 171/1/4 167/1/4 172/1/4
f 173/2/4 174/2/4 175/2/4
f 175/2/4 174/2/4 176/2/4
f 177/1/4 178/1/4 179/1/4
f 173/2/4 175/2/4 180/2/4
f 177/1/4 179/1/4 181/1/4
f 179/3/4 180/3/4 181/3/4
f 180/2/4 175/2/4 182/2/4
f 181/3/4 180/3/4 182/3/4
f 177/1/4 181/1/4 183/1/4
f 183/1/4 181/1/4 184/1/4
f 182/2/4 175/2/4 185/2/4
f 182/2/4 185/2/4 187/2/4
f 185/2/4 186/2/4 187/2/4
f 187/2/4 186/2/4 188/2/4
f 191/1/5 190/1/5 189/1/5
f 192/1/5 190/1/5 191/1/5
f 197/2/5 194/2/5 193/2/5
f 198/2/5 194/2/5 197/2/5
f 199/2/5 196/2/5 195/2/5
f 200/2/5 196/2/5 199/2/5
f 201/2/5 197/2/5 193/2/5
f 204/2/5 196/2/5 200/2/5
f 205/2/5 202/2/5 201/2/5
f 205/2/5 201/2/5 193/2/5
f 206/2/5 202/2/5 205/2/5
f 207/2/5 204/2/5 203/2/5
f 208/2/5 196/2/5 204/2/5
f 208/2/5 204/2/5 207/2/5
f 213/1/5 210/1/5 209/1/5
f 214/1/5 210/1/5 213/1/5
f 215/1/5 212/1/5 211/1/5
f 216/1/5 212/1/5 215/1/5
f 217/1/6 218/1/6 221/1/6
f 221/1/6 218/1/6 222/1/6
f 219/1/6 220/1/6 223/1/6
f 223/1/6 220/1/6 224/1/6
f 225/1/6 226/1/6 229/1/6
f 229/1/6 226/1/6 230/1/6
f 227/1/6 228/1/6 231/1/6
f 231/1/6 228/1/6 232/1/6
f 233/2/6 234/2/6 235/2/6
f 235/2/6 234/2/6 236/2/6
f 236/2/6 234/2/6 237/2/6
f 237/2/6 234/2/6 238/2/6
f 233/2/6 235/2/6 239/2/6
f 238/2/6 234/2/6 242/2/6
f 240/2/6 241/2/6 243/2/6
f 241/2/6 242/2/6 243/2/6
f 233/2/6 239/2/6 243/2/6
f 239/2/6 240/2/6 243/2/6
f 242/2/6 234/2/6 244/2/6
f 243/2/6 242/2/6 244/2/6
f 245/2/6 246/2/6 249/2/6
f 249/2/6 246/2/6 250/2/6
f 247/2/6 248/2/6 251/2/6
f 251/2/6 248/2/6 252/2/6
f 253/1/6 254/1/6 257/1/6
f 257/1/6 254/1/6 258/1/6
f 255/1/6 256/1/6 259/1/6
f 259/1/6 256/1/6 260/1/6
f 261/1/6 262/1/6 265/1/6
f 265/1/6 262/1/6 266/1/6
f 263/1/6 264/1/6 267/1/6
f 267/1/6 264/1/6 268/1/6
f 269/1/6 270/1/6 273/1/6
f 273/1/6 270/1/6 274/1/6
f 271/1/6 272/1/6 275/1/6
f 275/1/6 272/1/6 276/1/6
f 277/1/6 278/1/6 279/1/6
f 279/1/6 278/1/6 280/1/6
